<?xml version="1.0" encoding="UTF-8" standalone="no"?>
<svg xmlns="http://www.w3.org/2000/svg" viewBox="0 0 1024 1024">
	<style>
		g { display: none; }
		g:target { display: inline; }
	</style>
	<g id="icon_64099" data-name="aa-class">
		<path d="M1000.6 941.8h-208.3a23.5-23.5 1 0 1-18.3-38.3a15.7-15.7 1 0 1 5.2-4.4l81-41.8v-175.2a40.1-40.1 1 0 1 16.6-32.2a15.7-15.7 1 0 1 4.4-0.9v-488a57.5-57.5 1 0 0-12.2-47.1a54.9-54.9 1 0 0-47.9 0.9l-7 149a22.7-22.7 1 0 1-7 14.8a23.5-23.5 1 0 1-33.1 0.9l0 0l-148.2-146.4a23.5-23.5 1 0 1 13.1-40.1l165.6-7l0 0c35.7-13.9 64.5-13.1 84.5 2.6 29.6 23.5 24.4 68.8 24.4 74.1l0 484.5h0.9a16.6-16.6 1 0 1 8.7 2.6a40.1-40.1 1 0 1 17.4 33.1l0 176.9l73.2 39.2a15.7-15.7 1 0 1 3.5 2.6a23.5-23.5 1 0 1-16.6 40.1zm-338.1-817.5l120.3 118.5l6.1-123.8zm253.6 759.1a15.7-15.7 1 0 1-8.7-13.9l0-186.5a7.8-7.8 1 0 0 0-3.5h-13.9a7.8-7.8 1 0 0-0.9 3.5v184.8a15.7-15.7 1 0 1-8.7 13.9l-54.9 27.9h136.8zm-245.8-450.6v97.6l90.6 63.6a86.3-86.3 1 0 1-0.9 152.5v164.7c0 22.7-24.4 36.6-64.5 36.6s-64.5-13.9-64.5-36.6v-12.2h-455.8v12.2c0 22.7-24.4 36.6-64.5 36.6s-64.5-13.9-64.5-36.6v-164.7a86.3-86.3 1 0 1-0.9-152.5l89.8-62.7v-98.5a54-54 1 0 1 54.9-54h426.2a54-54 1 0 1 54 54zm-7 294.6a14.8-14.8 1 0 1 0 10.5v15.7s0 0 0 0l0 156a68-68 1 0 0 32.2 6.1a68-68 1 0 0 32.2-6.1v-173.4a15.7-15.7 1 0 1 10.5-14.8a54.9-54.9 1 0 0 36.6-51.4a54-54 1 0 0-15.7-38.3l0 0l-16.6-11.3a55.8-55.8 1 0 0-23.5-5.2a55.8-55.8 1 0 0-55.8 54.9c0 0 0 3.5 0 3.5a30.5-30.5 1 0 1 0 3.5v50.5zm-488 139.4h455.8v-82.8a54-54 1 0 1-14.8 2.6h-427a54-54 1 0 1-13.9-2.6zm0-118.5a21.8-21.8 1 0 0 13.9 6.1h427a21.8-21.8 1 0 0 14.8-7v-12.2l-30.5-47.9h-394.8l-30.5 48.8v12.2zm-111.5-128.1l-16.6 11.3l0 0a54-54 1 0 0-15.7 38.3a54.9-54.9 1 0 0 36.6 51.4a16.6-16.6 1 0 1 10.5 14.8v173.4a68-68 1 0 0 32.2 6.1a68-68 1 0 0 32.2-6.1v-149.9a15.7-15.7 1 0 1 0-12.2v-11.3a14.8-14.8 1 0 1 0-6.1v-54.9c0 0 0-1.7 0-1.7l16.6-1.7l-16.6-1.7a55.8-55.8 1 0 0-55.8-54.9a55.8-55.8 1 0 0-23.5 5.2zm47.9-33.1a87.1-87.1 1 0 1 63.6 82.8c0 0.9 0 2.6 0 3.5v2.6l7.8-13.1a15.7-15.7 1 0 1 2.6-2.6c0 0 32.2-34 16.6-68a63.6-63.6 1 0 0-46.2-36.6zm526.4-154.3a22.7-22.7 1 0 0-21.8-21.8h-427a22.7-22.7 1 0 0-21.8 21.8v92.4a94.1-94.1 1 0 1 64.5 53.2a85.4-85.4 1 0 1-4.4 77.6h351.2a85.4-85.4 1 0 1-3.5-77.6a94.1-94.1 1 0 1 62.7-52.3v-93.2zm-34 159.5c-15.7 34 16.6 68 16.6 68a16.6-16.6 1 0 1 2.6 2.6l7.8 13.1v-0.9a28.8-28.8 1 0 1 0.9-3.5a88-88 1 0 1 62.7-84.5l-44.4-31.4a63.6-63.6 1 0 0-46.2 36.6z"></path>
	</g>
	<g id="icon_59472" data-name="accessibility">
		<path d="M960 192v-64l-448 128-448-128v64l320 128v256l-128 448h64l192-448 192 448h64l-128-448v-256zM416 96c0-53 43-96 96-96s96 43 96 96c0 53-43 96-96 96-53 0-96-43-96-96z"></path>
	</g>
	<g id="icon_59597" data-name="align-left-2">
		<path d="M1024 804.6v73.1q0 14.9-10.9 25.7t-25.7 10.9h-950.9q-14.9 0-25.7-10.9t-10.9-25.7v-73.1q0-14.9 10.9-25.7t25.7-10.9h950.9q14.9 0 25.7 10.9t10.9 25.7zM804.6 585.1v73.1q0 14.9-10.9 25.7t-25.7 10.9h-731.4q-14.9 0-25.7-10.9t-10.9-25.7v-73.1q0-14.9 10.9-25.7t25.7-10.9h731.4q14.9 0 25.7 10.9t10.9 25.7zM950.9 365.7v73.1q0 14.9-10.9 25.7t-25.7 10.9h-877.7q-14.9 0-25.7-10.9t-10.9-25.7v-73.1q0-14.9 10.9-25.7t25.7-10.9h877.7q14.9 0 25.7 10.9t10.9 25.7zM731.4 146.3v73.1q0 14.9-10.9 25.7t-25.7 10.9h-658.3q-14.9 0-25.7-10.9t-10.9-25.7v-73.1q0-14.9 10.9-25.7t25.7-10.9h658.3q14.9 0 25.7 10.9t10.9 25.7z"></path>
	</g>
	<g id="icon_58890" data-name="angie">
		<path d="M781.5 90h-539.1c-133.9 0-242.5 108.5-242.5 242.5v20.2c0 133.9 108.5 242.5 242.5 242.5h2l131.8 339 132.3-339h273c133.9 0 242.5-108.5 242.5-242.5v-20.2c0-133.9-108.5-242.5-242.5-242.5zM886.4 346.2c0 62.8-50.9 113.7-113.7 113.7h-327.3l-68.9 207.1-54.9-207.1h-69.7c-62.8 0-113.7-50.9-113.7-113.7v-9.5c0-62.8 50.9-113.7 113.7-113.7h520.8c62.8 0 113.7 50.9 113.7 113.7v9.5h0z"></path>
	</g>
	<g id="icon_59665" data-name="angle-down">
		<path d="M1024 298.6q0 13.3-10.3 23.6l-478.1 478.1q-10.3 10.3-23.6 10.3t-23.6-10.3l-478.1-478.1q-10.3-10.3-10.3-23.6t10.3-23.6l51.3-51.3q10.3-10.3 23.6-10.3t23.6 10.3l403.2 403.2 403.2-403.2q10.3-10.3 23.6-10.3t23.6 10.3l51.3 51.3q10.3 10.3 10.3 23.6z"></path>
	</g>
	<g id="icon_59668" data-name="angle-left">
		<path d="M810.6 85.2q0 13.3-10.3 23.6l-403.2 403.2 403.2 403.2q10.3 10.3 10.3 23.6t-10.3 23.6l-51.3 51.3q-10.3 10.3-23.6 10.3t-23.6-10.3l-478.1-478.1q-10.3-10.3-10.3-23.6t10.3-23.6l478.1-478.1q10.3-10.3 23.6-10.3t23.6 10.3l51.3 51.3q10.3 10.3 10.3 23.6z"></path>
	</g>
	<g id="icon_59669" data-name="angle-right">
		<path d="M810.6 512q0 13.3-10.3 23.6l-478.1 478.1q-10.3 10.3-23.6 10.3t-23.6-10.3l-51.3-51.3q-10.3-10.3-10.3-23.6t10.3-23.6l403.2-403.2-403.2-403.2q-10.3-10.3-10.3-23.6t10.3-23.6l51.3-51.3q10.3-10.3 23.6-10.3t23.6 10.3l478.1 478.1q10.3 10.3 10.3 23.6z"></path>
	</g>
	<g id="icon_57509" data-name="arrow-down">
		<path d="M320 0h384v64h-384zM320 128h384v64h-384zM320 256h384v64h-384zM512 1024l448-448h-256v-192h-384v192h-256z"></path>
	</g>
	<g id="icon_57559" data-name="arrow-left-6">
		<path d="M512 0c282.8 0 512 229.2 512 512s-229.2 512-512 512-512-229.2-512-512 229.2-512 512-512zM512 896c212.1 0 384-171.9 384-384s-171.9-384-384-384c-212.1 0-384 171.9-384 384 0 212.1 171.9 384 384 384zM448 736v-160h320v-128h-320v-160l-224 224z"></path>
	</g>
	<g id="icon_57561" data-name="arrow-left-7">
		<path d="M387.1 94.6l-365.7 365.7c-28.6 28.6-28.6 74.9 0 103.4l365.7 365.7c28.6 28.6 74.9 28.6 103.4 0 28.6-28.6 28.6-74.9 0-103.4l-240.9-240.9h701.1c40.4 0 73.1-32.7 73.1-73.1 0-40.4-32.7-73.1-73.1-73.1h-701.1l240.9-240.9c14.3-14.3 21.4-33 21.4-51.7s-7.1-37.4-21.4-51.7c-28.6-28.6-74.9-28.6-103.4 0z"></path>
	</g>
	<g id="icon_57586" data-name="arrow-right-11">
		<path d="M512 0c-282.8 0-512 229.2-512 512s229.2 512 512 512 512-229.2 512-512-229.2-512-512-512zM512 896c-212.1 0-384-171.9-384-384s171.9-384 384-384c212.1 0 384 171.9 384 384 0 212.1-171.9 384-384 384zM576 736v-160h-320v-128h320v-160l224 224z"></path>
	</g>
	<g id="icon_57560" data-name="arrow-right-6">
		<path d="M512 0c-282.8 0-512 229.2-512 512s229.2 512 512 512 512-229.2 512-512-229.2-512-512-512zM512 928c-229.8 0-416-186.2-416-416s186.2-416 416-416 416 186.2 416 416-186.2 416-416 416zM813.3 466.7l-256-256c-25-25-65.5-25-90.5 0s-25 65.5 0 90.5l146.7 146.7h-357.5c-35.3 0-64 28.7-64 64s28.7 64 64 64h357.5l-146.7 146.7c-25 25-25 65.5 0 90.5 12.5 12.5 28.9 18.7 45.3 18.7s32.8-6.2 45.3-18.7l256-256c25-25 25-65.5 0-90.5z"></path>
	</g>
	<g id="icon_57566" data-name="arrow-right-7">
		<path d="M636.9 929.4l365.7-365.7c28.6-28.6 28.6-74.9 0-103.4l-365.7-365.7c-28.6-28.6-74.9-28.6-103.4 0-28.6 28.6-28.6 74.9 0 103.4l240.9 240.9h-701.1c-40.4 0-73.1 32.7-73.1 73.1s32.7 73.1 73.1 73.1h701.1l-240.9 240.9c-14.3 14.3-21.4 33-21.4 51.7s7.1 37.4 21.4 51.7c28.6 28.6 74.9 28.6 103.4 0z"></path>
	</g>
	<g id="icon_58889" data-name="avvo">
		<path d="M536.6 691c225.5-241.4 321.8-400 363.7-487.2l123.8 461.9c-153.8-88.6-312.8-62.4-487.4 25.3zM90.1 937.3c108.8-326.7 112.2-609.3-90.1-850.7l864.7 85.2c-86 48.6-241.5 157.8-472.3 403.6-133 141.7-231.1 263.7-302.3 361.9z"></path>
	</g>
	<g id="icon_58888" data-name="bbb">
		<path d="M507 2.5c-59.6 124-272.5 244.3-10.1 435.8 72.4 53.9 193.9 86.1 131.8 212.8-5.5 9.7 4.1 12.3 12.7 5.1 88.6-102.8 232.8-264.9 111.4-397.3-68.9-74.6-210.3-123.8-238.6-194.6-5.5-13.7 0.6-33.6 8.1-49.2 6.1-14.6-12-18.4-15.2-12.7zM510.2 2.5c-59.6 124-272.5 244.3-10.1 435.8 72.4 53.9 193.9 86.1 131.8 212.8-5.5 9.7 4.1 12.3 12.7 5.1 88.6-102.8 232.8-264.9 111.4-397.3-68.9-74.6-210.3-123.8-238.6-194.6-5.5-13.7 0.6-33.6 8.1-49.2 6.1-14.6-12-18.4-15.2-12.7zM384.4 432.2c-30.7 83.5-185.8 179.6 21.3 290.5 47.9 28.6 109.8 64.4 103 116.7-2.6 6.7 3.4 7.6 8 2.2 68.2-78.2 119.4-190 35.9-265-43.6-42.3-146.9-65.1-158.1-137.5 2.5-9.9-8.7-10.8-10.2-6.9zM244 872.1h523.2v64.3h-523.2v-64.3zM244.6 870.3l-23.1 64.9 39.6 0.6-16.5-65.5zM766.7 870.3l23.1 64.9-39.6 0.6 16.5-65.5zM354.3 919.1l38.6 104.9 226.8-0.8 35.5-104.2h-300.9z"></path>
	</g>
	<g id="icon_57393" data-name="blogger">
		<path d="M704 1024h-384q-87 0-160.5-43t-116.5-116.5-43-160.5v-384q0-87 43-160.5t116.5-116.5 160.5-43h192q87 0 160.5 43t116.5 116.5 43 160.5q0 26 18.5 45t45.5 19h64q26 0 45 18.5t19 45.5v256q0 87-43 160.5t-116.5 116.5-160.5 43zM512 256h-192q-27 0-45.5 18.5t-18.5 45 18.5 45.5 45.5 19h192q27 0 45.5-19t18.5-45.5-19-45-45-18.5zM704 640h-384q-27 0-45.5 18.5t-18.5 45 18.5 45.5 45.5 19h384q26 0 45-19t19-45.5-19-45-45-18.5z"></path>
	</g>
	<g id="icon_64422" data-name="broken-pipe-before">
		<path d="M985 415.4h-372.8l-44.9-59.5l34.8-74.1c3.4-9 2.2-19.1-3.4-25.8l-125.8-151.6c-9-10.1-23.6-12.4-34.8-3.4-6.7 5.6-10.1 13.5-9 22.5l16.8 129.1l-79.7 84.2c-6.7 6.7-9 18-4.5 26.9l23.6 51.6h-345.8c-52.8-133.6-52.8-281.8 0-415.4h945.4c49.4 129.1 32.6 278.5 0 415.4zm-472.7 608.6c-87.6 0-159.4-71.9-159.4-159.4 0-67.4 102.2-214.5 159.4-289.7 57.3 75.2 159.4 222.3 159.4 289.7 0 88.7-71.9 159.4-159.4 159.4zm-66.2-212.2c-13.5 0-24.7 11.2-24.7 24.7 0 0 0 0 0 0v59.5c0 13.5 11.2 24.7 24.7 24.7 13.5 0 24.7-11.2 24.7-24.7v-59.5c0-13.5-11.2-24.7-24.7-24.7 0 0 0 0 0 0z"></path>
	</g>
	<g id="icon_59173" data-name="calendar-15">
		<path d="M950.9 1024h-877.7c-40.4 0-73.1-32.8-73.1-73.1v-768c0-40.4 32.8-73.1 73.1-73.1h73.1v36.6c0 60.6 49.1 109.7 109.7 109.7s109.7-49.1 109.7-109.7v-36.6h292.6v36.6c0 60.6 49.2 109.7 109.7 109.7s109.7-49.1 109.7-109.7v-36.6h73.1c40.4 0 73.1 32.8 73.1 73.1v768c0 40.4-32.8 73.1-73.1 73.1zM950.9 365.7h-877.7v585.1h877.7v-585.1zM404.8 652c7.2-11.5 10.8-23.6 10.8-36.3 0-28.3-15.2-42.4-45.6-42.4-26.4 0-51.7 10.5-75.8 31.5v-59.6c26.7-17.3 56.9-25.9 90.4-25.9 31.4 0 56 7.9 73.6 23.7s26.5 37.1 26.5 64c0 35.8-21.5 72.9-64.5 111.2l-63.2 56.1v1.3h124.7v56.1h-202.3v-52.7l88.1-84.2c17.7-17 30.2-31.2 37.4-42.7zM652.3 774.1c9.7-7.4 14.5-17.8 14.5-31.1 0-13.7-6-24.3-17.9-31.7s-28.3-11.2-49.2-11.2h-27.6v-51.9h25.5c40 0 60-13.3 60-39.9 0-25-15.4-37.5-46.1-37.5-20.6 0-40.6 6.7-60 19.9v-55.3c21.6-10.9 46.7-16.3 75.4-16.3 31.4 0 55.9 7.1 73.4 21.2s26.3 32.5 26.3 55.1c0 40.2-20.4 65.3-61.1 75.4v1.1c21.7 2.7 38.8 10.6 51.4 23.7s18.9 29.1 18.9 48.1c0 28.7-10.5 51.4-31.5 68.1s-50 25.1-87 25.1c-31.7 0-57.5-5.2-77.3-15.4v-58.9c20.6 15 44.6 22.5 72 22.5 17.3 0.1 30.7-3.7 40.4-11.1zM766.9 219.4c-39.8 0-72-32.2-72-72v-75.4c0-39.8 32.2-72 72-72s72 32.2 72 72v75.4c0 39.8-32.2 72-72 72zM254.9 219.4c-39.8 0-72-32.2-72-72v-75.4c0-39.8 32.2-72 72-72s72 32.2 72 72v75.4c0 39.8-32.3 72-72 72z"></path>
	</g>
	<g id="icon_59206" data-name="cancel-2">
		<path d="M696 512.1l312.7 312.7c20.3 20.3 20.3 53.3 0 73.6l-110.4 110.4c-20.3 20.3-53.3 20.3-73.6 0l-312.8-312.7-312.8 312.7c-20.3 20.3-53.3 20.3-73.6 0l-110.4-110.4c-20.3-20.3-20.3-53.3 0-73.6l312.8-312.7-312.8-312.8c-20.3-20.3-20.3-53.3 0-73.6l110.5-110.4c20.3-20.3 53.3-20.3 73.6 0l312.7 312.8 312.8-312.8c20.3-20.3 53.3-20.3 73.6 0l110.4 110.4c20.3 20.3 20.3 53.3 0 73.6l-312.7 312.7z"></path>
	</g>
	<g id="icon_58885" data-name="city-search">
		<path d="M512 277.6c-8.9 0-17.6 0.5-26.3 1.5v183.5l-162-90.2c-29 39-46.1 87.3-46.1 139.6 0 129.5 104.9 234.4 234.4 234.4s234.4-104.9 234.4-234.4c0-129.5-104.9-234.4-234.4-234.4zM512 139.6c205.3 0 372.4 167 372.4 372.4s-167 372.4-372.4 372.4-372.4-167-372.4-372.4 167-372.4 372.4-372.4M512 0c-282.8 0-512 229.2-512 512 0 282.8 229.2 512 512 512s512-229.2 512-512c0-282.8-229.2-512-512-512v0z"></path>
	</g>
	<g id="icon_59376" data-name="clipboard-4">
		<path d="M252.5 223.6c0 17.6 0 63.9 0 63.9h449.1c0 0 0-46.2 0-63.9 0-17.7-14.3-31.9-31.9-31.9h-95.8c0 0 1.1-36.5 1.1-92.4 0-51.9-45-99.3-98.9-99.3s-95.4 45.1-95.4 99c0 51.9-0.4 92.6-0.4 92.6h-95.8c-17.7 0-31.9 14.3-31.9 31.9zM476.1 95.9c17.6 0 31.9 14.3 31.9 31.9 0 17.7-14.3 31.9-31.9 31.9s-31.9-14.3-31.9-31.9c0-17.6 14.3-31.9 31.9-31.9zM765.5 191.6v317.3c0 0 27.6-30.4 63.8-45v-304.2c0-35.3-30.6-63.9-65.9-63.9h-157.7v63.9h127.7c17.7 0 32 14.3 32 31.9zM410.2 960.1h-189.6c-17.6 0-31.9-14.3-31.9-31.9v-736.5c0-17.6 14.3-31.9 31.9-31.9h129.8v-63.9h-161.7c-35.3 0-63.9 28.6-63.9 63.9v800.4c0 35.3 28.6 63.9 63.9 63.9h291c-12.5-21.1-34.8-45.4-69.5-63.9zM765.5 928.2c0 17.7-14.3 31.9-31.9 31.9h-87.5c-16.1 21.5-31.2 42.9-45.2 63.9h162.6c35.3 0 65.9-28.6 65.9-63.9v-196.4c-21.1 17.4-42.6 37-63.8 58.6v105.8zM899.2 669.1c-36-80-15.4-144.9-10.3-219.9-210.8 105-344.5 419.9-344.5 419.9l-82.3-155-169.7 100c72 25 174.8 105 262.3 209.9 61.7-110 251.9-334.8 344.5-354.9z"></path>
	</g>
	<g id="icon_59388" data-name="clock-7">
		<path d="M512 0c-282.8 0-512 229.2-512 512s229.2 512 512 512 512-229.2 512-512-229.2-512-512-512zM512 938.7c-235.3 0-426.7-191.4-426.7-426.7s191.4-426.7 426.7-426.7 426.7 191.4 426.7 426.7-191.4 426.7-426.7 426.7zM701.7 217.8c-21.1-10.5-46.7-2-57.3 19.1l-144.2 288.4-86.2-86.1c-16.7-16.7-43.6-16.7-60.3 0s-16.7 43.6 0 60.3l128 128c8.1 8.1 18.9 12.5 30.2 12.5 2.3 0 4.6-0.2 6.8-0.6 13.5-2.2 25.2-10.8 31.3-23l170.7-341.3c10.6-21.1 2-46.7-19.1-57.3zM469.4 810.6h85.3v42.8h-85.3zM469.4 128h85.3v42.8h-85.3zM128 469.2h85.3v42.8h-85.3zM810.6 469.2h85.3v42.8h-85.3z"></path>
	</g>
	<g id="icon_63923" data-name="clocks-5">
		<path d="M970.8 414.7l-36.5 35.6a469.1-469.1 1 1 0-93.6 348.3a33.7-33.7 1 0 0-5.6-46.8a33.7-33.7 1 0 0-46.8 5.6a401.7-401.7 1 1 1 81.5-296.8l-48.7-45.9a33.7-33.7 1 0 0-45.9 0a33.7-33.7 1 0 0 0 45.9l97.4 97.4a34.6-34.6 1 0 0 24.3 9.4a36.5-36.5 1 0 0 23.4-9.4l98.3-97.4a33.7-33.7 1 0 0-47.8-45.9zm-502.9-268.8a23.4-23.4 1 1 1-23.4 23.4a24.3-24.3 1 0 1 23.4-23.4zm0 686.4a23.4-23.4 1 1 1-23.4 24.3a24.3-24.3 1 0 1 23.4-24.3zm-344.6-343.7a23.4-23.4 1 1 1-24.3 24.3a24.3-24.3 1 0 1 24.3-24.3zm511.3 208.8a33.7-33.7 1 0 0 46.8-5.6a32.8-32.8 1 0 0-5.6-45.9l-96.5-74.9a103-103 1 0 0-65.5-147v-118.9a32.8-32.8 1 0 0-65.5 0v122.7a103-103 1 0 0-66.5 96.5a103.9-103.9 1 0 0 148.9 92.7zm-148.9-135.8a37.5-37.5 1 1 1 37.5-37.5a37.5-37.5 1 0 1-37.5 37.5z"></path>
	</g>
	<g id="icon_57653" data-name="close">
		<path d="M1024 851.9l-172.1 172.1-339.9-339.9-339.9 339.9-172.1-172.1 339.9-339.9-339.9-339.9 172.1-172.1 339.9 339.9 339.9-339.9 172.1 172.1-339.9 339.9 339.9 339.9z"></path>
	</g>
	<g id="icon_57655" data-name="close-3">
		<path d="M512 0c-282.8 0-512 229.2-512 512s229.2 512 512 512c282.8 0 512-229.2 512-512s-229.2-512-512-512zM819.7 716.3l-103.4 103.4-204.3-204.3-204.3 204.3-103.4-103.4 204.3-204.3-204.3-204.3 103.4-103.4 204.3 204.3 204.3-204.3 103.4 103.4-204.3 204.3 204.3 204.3z"></path>
	</g>
	<g id="icon_59643" data-name="contrast-2">
		<path d="M512 0c-282.8 0-512 229.2-512 512s229.2 512 512 512 512-229.2 512-512-229.2-512-512-512zM128 512c0-212.1 171.9-384 384-384v768c-212.1 0-384-171.9-384-384z"></path>
	</g>
	<g id="icon_57411" data-name="delicious">
		<path d="M853.4 0h-682.7c-93.9 0-170.7 76.8-170.7 170.7v682.6c0 93.9 76.8 170.7 170.7 170.7h682.7c93.9 0 170.6-76.8 170.6-170.7v-682.6c0-93.9-76.8-170.7-170.6-170.7zM960 853.3c0 28.3-11.1 55.1-31.4 75.3-20.2 20.2-46.9 31.4-75.3 31.4h-341.4v-448h-448v-341.3c0-28.3 11.2-55 31.4-75.3 20.2-20.2 47-31.4 75.3-31.4h341.3v448h448v341.3z"></path>
	</g>
	<g id="icon_59849" data-name="deviantart">
		<path d="M561.9 407c-39-2.3-84.1 0-136.2 8.9l120.3 216.9 478.1-131.3c-5.2-12.3-12.7-24.2-22.7-35.8-49.5-57.3-156.7-108.4-273.6-131.4l0 0c-114.6-26.9-238.8-25.7-366-6.5-4.6 0.7-9.1 1.4-13.7 2.2l-42.3-78.3c-41.1 5.5-79.8 14-115.6 25.5l40.3 84.2c-65.8 25.5-119.7 61.8-158.7 105.4-64.2 73.1-89.6 164.9-58.7 254.4 6.2 18 14.6 35.2 24.9 51.2l478.1-131.3-132.7-245.8c4.6-0.9 9.2-1.8 13.9-2.6 214.7-38.3 332.1 20.9 396.4 83.8l-163.6 39.6-68.3-109zM174.7 626.4c-14.8-67.4-3-142.5 90.4-192.6l73.1 152.9-163.5 39.6z"></path>
	</g>
	<g id="icon_64172" data-name="document-4">
		<path d="M151.6 974.8v-925.7h516.1v181.2a24.6-24.6 1 0 0 24.6 23.6h180.2v720.9h-720.9zm565.2-891.9l121.9 122.9h-121.9v-122.9zm203.8 142.3c0-1 0-3.1-1-4.1a1-1 1 0 1 0-1c-1-1-1-2-2-4.1v0c-1-1-2-2-3.1-4.1l-204.8-204.8c-1-1-3.1-2-4.1-3.1h0a21.5-21.5 1 0 0-4.1-2a2-2 1 0 0-1 0a16.4-16.4 1 0 0-3.1-1a25.6-25.6 1 0 0-5.1-1h-565.2a24.6-24.6 1 0 0-24.6 24.6v974.8a24.6-24.6 1 0 0 24.6 24.6h770a24.6-24.6 1 0 0 24.6-24.6v-769c0-2 0-4.1-1-5.1zm-643.1 51.2h277.5a24.6-24.6 1 0 0 24.6-24.6a24.6-24.6 1 0 0-24.6-24.6h-277.5a24.6-24.6 1 0 0-24.6 24.6a24.6-24.6 1 0 0 24.6 24.6zm469 210.9h-469a24.6-24.6 1 0 0-24.6 24.6a24.6-24.6 1 0 0 24.6 24.6h469a24.6-24.6 1 1 0 0-49.2zm0 260.1h-469a24.6-24.6 1 0 0-24.6 24.6a24.6-24.6 1 0 0 24.6 24.6h469a24.6-24.6 1 0 0 24.6-24.6a24.6-24.6 1 0 0-24.6-24.6z"></path>
	</g>
	<g id="icon_63997" data-name="emergency-2">
		<path d="M960.6 671.8a63.9-63.9 1 0 1-127.3 0h-63.9a63.9-63.9 1 0 1-127.3 0h-63.9a63.9-63.9 1 0 1-127.3 0h-63.9a63.9-63.9 1 0 1-127.3 0h-63.9a63.9-63.9 1 0 1-127.3 0h-68.5a126.7-126.7 1 0 0 129 125.6a123.9-123.9 1 0 0 95.3-44a130.1-130.1 1 0 0 95.9 42.8a126.7-126.7 1 0 0 95.3-42.8a130.1-130.1 1 0 0 95.3 42.8a126.7-126.7 1 0 0 95.9-42.8a130.1-130.1 1 0 0 95.3 42.8a126.7-126.7 1 0 0 95.9-42.8a131.3-131.3 1 0 0 95.3 44c74.2 0 130.7-56.5 130.7-125.6h-63.4zm-614.7-205.5l169.5-151.8l165 151.8h-334.5zm297.4-168.4h38.2v79.9l-38.2-34.8v-45.1zm199.8 229.5l-123.9-113v-155.3h-114.7v47.4l-87.9-79.9l-337.9 300.8h49.1v75.3h69.6v-75.3h429.8v75.3h69.6v-75.3h46.2z"></path>
	</g>
	<g id="icon_57353" data-name="facebook">
		<path d="M592.6 1024h-191.9v-512h-128v-176.4l128-0.1-0.2-104c0-144 39-231.5 208.6-231.5h141.2v176.5h-88.2c-66 0-69.2 24.7-69.2 70.7l-0.3 88.3h158.7l-18.7 176.4-139.9 0.1-0.1 512z"></path>
	</g>
	<g id="icon_57361" data-name="feed">
		<path d="M136.3 750.9c-75.2 0-136.3 61.3-136.3 136.1 0 75.2 61.1 135.8 136.3 135.8 75.5 0 136.5-60.6 136.5-135.8 0-74.7-61-136.1-136.5-136.1zM0.2 347.9v196.3c127.8 0 248 50 338.5 140.5 90.4 90.3 140.3 211 140.3 339.3h197.1c0-372.8-303.3-676.1-675.9-676.1zM0.4 0v196.4c455.8 0 826.8 371.3 826.8 827.6h196.9c0-564.5-459.3-1024-1023.6-1024z"></path>
	</g>
	<g id="icon_57370" data-name="flickr">
		<path d="M800 736q-93 0-158.5-65.5t-65.5-158.5 65.5-158.5 158.5-65.5 158.5 65.5 65.5 158.5-65.5 158.5-158.5 65.5zM224 736q-93 0-158.5-65.5t-65.5-158.5 65.5-158.5 158.5-65.5 158.5 65.5 65.5 158.5-65.5 158.5-158.5 65.5z"></path>
	</g>
	<g id="icon_57488" data-name="font-size">
		<path d="M0 438.9h438.9v146.3h-146.3v438.9h-146.3v-438.9h-146.3zM1024 146.3h-287.7v877.7h-156v-877.7h-287.7v-146.3h731.4z"></path>
	</g>
	<g id="icon_60535" data-name="fullscreen-alt">
		<path d="M941.2 850.8l-210.8-210.8-90.5 90.5 210.8 210.8-82.8 82.8h256v-256zM82.8 173.2l210.8 210.8 90.5-90.5-210.8-210.8 82.8-82.8h-256v256zM850.8 82.8l-210.8 210.8 90.5 90.5 210.8-210.8 82.8 82.8v-256h-256zM384 730.5l-90.5-90.5-210.8 210.8-82.8-82.8v256h256l-82.8-82.8z"></path>
	</g>
	<g id="icon_60537" data-name="fullscreen-exit-alt">
		<path d="M896 640h-256v256l82.8-82.8 210.8 210.8 90.5-90.5-210.8-210.8zM813.2 301.2l210.8-210.8-90.5-90.5-210.8 210.8-82.8-82.8v256h256zM90.5 0l-90.5 90.5 210.8 210.8-82.8 82.8h256v-256l-82.8 82.8zM210.8 722.8l-210.8 210.8 90.5 90.5 210.8-210.8 82.8 82.8v-256h-256z"></path>
	</g>
	<g id="icon_57388" data-name="github">
		<path d="M235.3 248.7c-50.8 0-94.5 16.8-131.1 50.4-38.1 35.9-57.1 80.7-57.1 134.4 0 35.9 10.4 69.5 31.3 100.8 18.7 29.1 38.2 47.8 63.8 56v2.2c-25.6 10.4-37 36.6-37 78.4 0 32.1 11.4 56 37 71.7v2.2c-70.7 23.1-103 66.1-103 128.8 0 54.5 23.7 94.5 70.1 119.9 36.6 20.2 83.6 30.3 140.3 30.3 138.2 0 207.4-57.9 207.4-173.7 0-72.4-53.3-116.9-160.1-133.3-24.6-3.7-43.3-12.7-56-26.9-9.7-9.7-14.5-19.4-14.5-29.1 0-27.6 15-43.7 44.8-48.2 45.6-6.7 82.7-27.8 111.5-63.3 28.8-35.5 43.1-77.1 43.1-124.9 0-14.9-4.5-31-10.5-48.2 19.4-4.5 33-8.6 43.3-12.3v-115.4c-45.1 17.9-87 26.9-122.8 26.9-31.4-17.9-63.8-26.9-100.4-26.9zM247.6 807.8c62.7 0 94.1 19 94.1 57.1 0 40.3-28.8 60.5-86.3 60.5-65.7 0-98.6-19.4-98.6-58.3 0-39.6 30.2-59.4 90.7-59.4zM239.8 512c-47.1 0-70.6-25.8-70.6-77.3 0-55.3 23.5-82.9 70.6-82.9 22.4 0 40 8.6 52.7 25.8 10.5 15.7 15.7 34.4 15.7 56 0 52.3-22.8 78.4-68.3 78.4zM580.4 0c-21.7 0-40.1 8.2-55.5 24.6-15.3 16.4-23 36.2-23 59.4 0 22.4 7.7 41.8 23 58.3 15.3 16.4 33.8 24.6 55.5 24.6 20.9 0 39-8.2 54.3-24.6 15.3-16.4 23-35.8 23-58.3 0-23.2-7.6-42.9-23-59.4-15.3-16.4-33.4-24.6-54.3-24.6zM643.1 256h-126.6c1.5 14.3-0.6 36-0.6 71.1v348.4c0 35.9 2.1 64.8 0.6 76h126.6c-1.5-16.4-5.4-44.7-5.4-82.8v-343.9c0-32.9 3.9-54.6 5.4-68.9zM922.3 644.2c-32.9 0-49.1-25-49.1-75.1v-206.6h49.9c9 0 17-0.5 27.1 0.2 10.1 0.7 14.2 0.2 19.3 0.2v-107h-96.3v-47.6c0-17.9 2.8-34.3 5.1-44.5h-130c2.2 10.2 2 25.9 2 46.8v45.4h-56.3v107c15.4-2.2 29.1-3.4 38.8-3.4l17.5 1.1v202.8c0 62.7 8 108.7 23.6 137.8 20.9 38.8 57.6 58.3 112.1 58.3 38.8 0 73.1-7.5 98.7-22.4v-112c-20.5 12.7-39.4 19-62.5 19z"></path>
	</g>
	<g id="icon_64610" data-name="google-2">
		<path d="M0.4 495.8a323.9-323.9 1 0 1 324.6-307.7a329.7-329.7 1 0 1 217 80.3a1166.8-1166.8 1 0 1-82.3 84.9c-73.9-50.5-179.5-65.4-253.3-6.5a206.7-206.7 1 0 0-9.1 323.3c99.1 89.4 286.3 44.7 313.6-92-61.5-1.3-124.4 0-185.9-1.9 0-36.9 0-73.9 0-110.8 103.7 0 207.3-0.6 311 0.6 5.8 86.2-5.2 178.8-59 250.1-81 113.4-243.6 146.4-370.6 98.5a324.6-324.6 1 0 1-206-318.7zm837.7-123.1h92c0.6 30.4 0.6 61.5 0.6 92 31.1 0.6 62.2 0.6 93.3 1.3v92c-31.1 0-62.2 0-93.3 0.6 0 31.1 0 61.5-0.6 92.6h-92.6c0-31.1 0-61.5-0.6-92.6l-92.6-0.6v-92l92.6-1.3z"></path>
	</g>
	<g id="icon_57348" data-name="google-plus">
		<path d="M539.1 822.8q0-12.9-2.8-24.9t-5.8-22.2-10.8-21.2-12.9-18.8-16.3-18.2-16.9-15.7-19.7-15.7-19.1-14.2-20.3-14.2-18.8-12.9q-10.5-1.2-30.8-1.2-33.2 0-65.2 4.3t-66.5 15.4-60.3 28.3-42.5 46.2-16.6 65.8q0 41.8 21.8 74.8t57.2 51.7 74.2 28 78.2 9.2q36.3 0 69.2-7.7t61.8-24 45.8-45.2 16.9-67.7zM465.2 292.3q0-36.9-10.2-78.5t-28.9-80.3-51.7-64-73.5-25.2q-57.2 0-88.6 42.5t-31.4 101.5q0 28.9 7.1 60.9t21.8 64 34.5 57.5 48 41.5 59.7 16q59.7 0 86.5-37.2t26.8-98.8zM384.6 0h268.9l-83.1 48.6h-83.1q43.7 27.7 67.7 77.5t24 104q0 45.5-14.2 80.9t-34.5 56.9-40.6 39.7-34.5 37.5-14.2 41.5q0 16 10.2 31.4t26.5 29.5 36 29.5 39.4 34.2 36 40.6 26.5 52.3 10.2 65.5q0 98.5-86.2 173.5-93.5 80.6-258.5 80.6-36.3 0-73.5-6.2t-75.1-20.6-66.8-35.7-47.4-54.8-18.5-74.8q0-37.5 22.8-83.1 19.7-39.4 59.1-68t89.2-43.7 95.4-22.2 92.3-8.3q-39.4-51.1-39.4-91.7 0-7.4 1.2-14.5t3.1-12 4.9-13.2 4.3-13.2q-24.6 3.1-43.1 3.1-91.7 0-157.2-60.3t-65.5-151.4q0-86.2 58.5-154.2t144-87.1q57.8-12.3 115.1-12.3zM1024 157.5v78.8h-157.5v157.5h-78.8v-157.5h-157.5v-78.8h157.5v-157.5h78.8v157.5h157.5z"></path>
	</g>
	<g id="icon_60630" data-name="group-outline">
		<path d="M512 578.8c123.1 0 222.6-99.6 222.6-222.6s-99.6-222.6-222.6-222.6-222.6 99.6-222.6 222.6 99.6 222.6 222.6 222.6zM512 222.6c73.6 0 133.6 59.9 133.6 133.6s-59.9 133.6-133.6 133.6-133.6-59.9-133.6-133.6 59.9-133.6 133.6-133.6zM868.2 623.3c61.5 0 111.3-49.7 111.3-111.3 0-61.5-49.8-111.3-111.3-111.3-61.5 0-111.3 49.8-111.3 111.3 0 61.6 49.8 111.3 111.3 111.3zM868.2 445.2c36.8 0 66.8 30 66.8 66.8s-30 66.8-66.8 66.8-66.8-30-66.8-66.8 30-66.8 66.8-66.8zM868.2 649.6c-59.3 0-103.8 18.1-129.9 43.1-49.6-40.9-128.1-69.4-226.3-69.4-100.9 0-177.9 28.8-226.7 69.6-26.5-25.2-71.6-43.4-129.5-43.4-97.4 0-155.8 48.6-155.8 97.2 0 24.3 58.4 48.6 155.8 48.6 26.9 0 51-2.3 72.3-5.9-0.4 4-1.8 8-1.8 12 0 44.5 107.1 89 285.7 89 167.5 0 285.7-44.5 285.7-89 0-3.8-0.5-7.6-0.9-11.4 20.6 3.2 44.3 5.3 71.4 5.3 91.3 0 155.8-24.4 155.8-48.6 0-48.6-61.1-97.1-155.8-97.1zM155.8 750.7c-58.3 0-92.1-9.2-107.6-15.8 10.6-18 44.7-41 107.6-41 49.3 0 81.8 15.6 98.3 31.4-3.7 5.1-7.5 10.1-10.5 15.3-20.1 5.3-49.3 10-87.8 10zM512 801.4c-96.3 0-155.9-13.9-186.3-25 23.2-30.2 85.4-64.1 186.3-64.1 96.6 0 159.8 33.9 184.7 63.4-33.6 12-96.3 25.6-184.7 25.6zM868.2 750.7c-40.7 0-68.8-4.6-87.8-9.5-3.2-5.7-6.9-11.2-11-16.7 15.8-15.4 47.7-30.5 98.9-30.5 58.9 0 95.3 22.3 107 40.6-17.4 7.3-53.6 16.1-107 16.1zM155.8 623.3c61.5 0 111.3-49.8 111.3-111.3 0-61.4-49.8-111.3-111.3-111.3-61.5 0-111.3 49.9-111.3 111.3 0 61.5 49.8 111.3 111.3 111.3zM155.8 445.2c36.8 0 66.8 30 66.8 66.8s-30 66.8-66.8 66.8-66.8-30-66.8-66.8 30-66.8 66.8-66.8z"></path>
	</g>
	<g id="icon_60680" data-name="health-2">
		<path d="M832 625.6l-64 64-128-320-128 384-192-704-128 640h-192v64h244.5l85.1-425.6 176.3 646.4 139.6-418.8 99.2 247.9 113.9-113.9h165.5v-64z"></path>
	</g>
	<g id="icon_60681" data-name="health-3">
		<path d="M933.5 953h-73.3v71h-146.6v-71h-403.2v71h-146.6v-71h-73.3c-40.5 0-73.3-32.8-73.3-73.3v-623.1c0-40.5 32.8-73.3 73.3-73.3h843c40.5 0 73.3 32.8 73.3 73.3v623.1c0 40.5-32.8 73.3-73.3 73.3zM713.6 513.1h-146.6v-146.6h-110v146.6h-146.6v110h146.6v146.6h110v-146.6h146.6v-110zM640.3 72.5h-219.9v74.1h-73.3v-35.9h36.7v-110.7h291.7v110h38.2v36.7h-73.3v-74.1z"></path>
	</g>
	<g id="icon_57357" data-name="instagram">
		<path d="M854 0h-684c-93.5 0-170 76.5-170 170v684c0 93.5 76.5 170 170 170h684c93.5 0 170-76.5 170-170v-684c0-93.5-76.5-170-170-170zM327.8 448h368.4c7 20.1 10.8 41.6 10.8 64 0 107.5-87.5 195-195 195-107.5 0-195-87.5-195-195 0-22.4 3.8-43.9 10.8-64zM896 448v384c0 35.2-28.8 64-64 64h-640c-35.2 0-64-28.8-64-64v-384h100.1c-4.6 20.6-7.1 42-7.1 64 0 160.5 130.5 291 291 291 160.5 0 291-130.5 291-291 0-22-2.5-43.4-7.1-64l100.1 0zM896 224c0 17.6-14.4 32-32 32h-64c-17.6 0-32-14.4-32-32v-64c0-17.6 14.4-32 32-32h64c17.6 0 32 14.4 32 32v64z"></path>
	</g>
	<g id="icon_61002" data-name="lines">
		<path d="M51.2 256h921.6c28.3 0 51.2-22.9 51.2-51.2s-22.9-51.2-51.2-51.2h-921.6c-28.3 0-51.2 22.9-51.2 51.2s22.9 51.2 51.2 51.2zM972.8 358.4h-921.6c-28.3 0-51.2 22.9-51.2 51.2s22.9 51.2 51.2 51.2h921.6c28.3 0 51.2-22.9 51.2-51.2s-22.9-51.2-51.2-51.2zM972.8 563.2h-921.6c-28.3 0-51.2 22.9-51.2 51.2s22.9 51.2 51.2 51.2h921.6c28.3 0 51.2-22.9 51.2-51.2s-22.9-51.2-51.2-51.2zM972.8 768h-921.6c-28.3 0-51.2 22.9-51.2 51.2s22.9 51.2 51.2 51.2h921.6c28.3 0 51.2-22.9 51.2-51.2s-22.9-51.2-51.2-51.2z"></path>
	</g>
	<g id="icon_61013" data-name="linkedin-2">
		<path d="M231.9 116.6c0 60.5-44.7 109.5-118.1 109.5-69.1 0-113.8-49-113.8-109.5 0-61.9 46.1-109.5 116.7-109.5s113.8 47.6 115.2 109.5zM5.8 1016.8v-704.3h218.9v704.3h-218.9zM355.7 537.2c0-87.8-2.9-161.3-5.8-224.7h190.1l10.1 98h4.3c28.8-46.1 99.4-113.8 217.5-113.8 144 0 252 96.5 252 303.9v416.3h-218.9v-390.3c0-90.7-31.7-152.7-110.9-152.7-60.5 0-96.4 41.8-112.3 82.1-5.8 14.4-7.2 34.5-7.2 54.7v406.2h-218.9v-479.7z"></path>
	</g>
	<g id="icon_61016" data-name="linkedin-5">
		<path d="M232.7 340.7v660.7h-220v-660.7h220zM246.7 136.7q0.7 48.7-33.7 81.3t-90.3 32.7h-1.3q-54.7 0-88-32.7t-33.3-81.3q0-49.3 34.3-81.7t89.7-32.3 88.7 32.3 34 81.7zM1024 622.7v378.7h-219.3v-353.3q0-70-27-109.7t-84.3-39.7q-42 0-70.3 23t-42.3 57q-7.3 20-7.3 54v368.7h-219.3q1.3-266 1.3-431.3t-0.7-197.3l-0.7-32h219.3v96h-1.3q13.3-21.3 27.3-37.3t37.7-34.7 58-29 76.3-10.3q114 0 183.3 75.7t69.3 221.7z"></path>
	</g>
	<g id="icon_61054" data-name="location-outline">
		<path d="M512 107.8c86.7 0 168.2 33.1 229.3 93.2 60.7 59.7 94.1 139 94.1 223.1s-33.4 163.3-94.1 223.1l-229.3 225.5-229.3-225.6c-60.6-59.7-94.1-138.8-94.1-223.1s33.4-163.4 94.1-223.2c61.2-60 142.7-93.1 229.3-93.1zM512 0c-110.3 0-220.8 41.4-304.9 124.2-168.4 165.7-168.4 434.3 0 599.9l304.9 299.8 304.9-299.9c168.4-165.6 168.4-434.2 0-599.8-84.1-82.8-194.5-124.2-304.9-124.2zM512 296.4c36 0 69.9 14 95.3 39.4 52.6 52.6 52.6 138.1 0 190.6-25.5 25.4-59.3 39.4-95.3 39.4s-69.8-14-95.3-39.4c-52.6-52.6-52.6-138.1 0-190.6 25.5-25.4 59.3-39.4 95.3-39.4zM512 242.5c-48.3 0-96.6 18.4-133.4 55.2-73.7 73.7-73.7 193.2 0 266.8 36.9 36.9 85 55.2 133.4 55.2s96.6-18.4 133.4-55.2c73.6-73.7 73.6-193.2 0-266.8-36.8-36.8-85.1-55.2-133.4-55.2z"></path>
	</g>
	<g id="icon_61111" data-name="magnifier">
		<path d="M992.4 979.5l-24.3 24.3c-26.9 26.9-70.5 26.9-97.3 0l-194.6-194.6c-22.5-22.6-25-56.4-9.6-82.7l-106.4-106.4c-57.2 42.5-127.8 67.9-204.6 67.9-190 0-344-154-344-344 0-190 154-344 344-344 190 0 344 154 344 344 0 88.4-33.6 168.8-88.5 229.8l104.1 104.1c26.3-15.3 60.2-12.9 82.6 9.7l194.6 194.6c26.9 26.9 26.9 70.5 0 97.4zM612.8 342.6c0-142.5-115.5-258-258-258s-258 115.5-258 258 115.5 258 258 258 258.1-115.5 258.1-258z"></path>
	</g>
	<g id="icon_57344" data-name="mail">
		<path d="M853.3 0h-682.7c-93.9 0-170.7 76.8-170.7 170.7v682.6c0 93.9 76.8 170.7 170.7 170.7h682.7c93.9 0 170.7-76.8 170.7-170.7v-682.6c0-93.9-76.8-170.7-170.7-170.7zM853.3 128c8 0 15.5 2.3 22 6.3l-363.4 300.4-363.4-300.4c6.5-4 14-6.3 22-6.3h682.7zM170.7 896c-1.9 0-3.8-0.1-5.7-0.4l225.6-313-29.3-29.3-233.4 233.4v-611.1l384 464.4 384-464.4v611.1l-233.4-233.4-29.3 29.3 225.6 313c-1.9 0.3-3.7 0.4-5.7 0.4h-682.7z"></path>
	</g>
	<g id="icon_61119" data-name="mail-9">
		<path d="M33.8 243.8c27.8 15 412.4 221.5 426.7 229.2 14.3 7.7 32.8 11.4 51.5 11.4 18.7 0 37.3-3.7 51.5-11.4 14.3-7.7 398.9-214.2 426.7-229.2 27.8-14.9 54.1-61.7 3.1-61.7h-962.5c-51 0-24.8 46.8 3 61.8zM1002 357.6c-31.6 16.5-419.1 219.1-438.4 229.2s-32.8 11.4-51.5 11.4c-18.7 0-32.1-1.3-51.5-11.4s-406.9-212.8-438.4-229.2c-22.2-11.6-22.1 2-22.1 12.5 0 10.5 0 417.3 0 417.3 0 23.9 31.8 54.6 56.4 54.6h911.2c24.7 0 56.4-30.7 56.4-54.6 0 0 0-406.8 0-417.3 0-10.5 0.2-24.1-22-12.5z"></path>
	</g>
	<g id="icon_64059" data-name="menu-16">
		<path d="M0 214.7h1024v66h-1024v-66zm0 266.4h1024l0 64.2h-1024zm0 262.2h1024v66h-1024v-66z"></path>
	</g>
	<g id="icon_64064" data-name="message-2">
		<path d="M1024 250.8l-425 290.8a171-171 1 0 1-173.9 0l-425-290.8v-99.6h1024v99.6zm0 622h-1024v-481.3l357.9 244.6a289.4-289.4 1 0 0 308.1 0l357.9-244.6v481.3h0z"></path>
	</g>
	<g id="icon_64051" data-name="money-2">
		<path d="M153.1 781.3h207l-192 53.3zm813.1-191.3l6 22.5l-6 2.3v-24.8zm-151.5-113.3a23.3-23.3 1 1 1-23.3 23.3a23.3-23.3 1 0 1 23.3-23.3zm-605.4 0a23.3-23.3 1 1 1-23.3 23.3a23.3-23.3 1 0 1 23.3-23.3zm605.4-46.5a70.5-70.5 1 1 0 69.8 69.8a70.5-70.5 1 0 0-69.8-69.8zm-605.4 0a70.5-70.5 1 1 0 69.8 69.8a70.5-70.5 1 0 0-69.8-69.8zm-150.8-21v24.8l-6.8-23.3zm453.8-26.3a25.5-25.5 1 0 0-23.3 23.3v3.8a63.8-63.8 1 0 0-46.5 60a65.3-65.3 1 0 0 17.3 46.5a72.8-72.8 1 0 0 52.5 18.8a25.5-25.5 1 0 1 18.8 5.3a17.3-17.3 1 0 1 4.5 13.5a23.3-23.3 1 0 1-23.3 16.5a26.3-26.3 1 0 1-26.3-11.3a23.3-23.3 1 1 0-41.3 21.8a66.8-66.8 1 0 0 44.3 33.8v3a23.3-23.3 1 1 0 46.5 0v-3.8a65.3-65.3 1 0 0 28.5-106.5a72-72 1 0 0-51.8-18.8a25.5-25.5 1 0 1-19.5-6a17.3-17.3 1 0 1-3.8-12.8a22.5-22.5 1 0 1 23.3-16.5a26.3-26.3 1 0 1 25.5 10.5a23.3-23.3 1 0 0 41.3-21.8a66-66 1 0 0-43.5-33v-3a24.8-24.8 1 0 0-23.3-23.3zm0-23.3a152.3-152.3 1 1 1-151.5 152.3a151.5-151.5 1 0 1 151.5-152.3zm0-47.3a199.5-199.5 1 1 0 198 199.5a198.8-198.8 1 0 0-198-199.5zm-407.3-23.3h814.6v445.6h-814.6v-445.6zm751.6-100.5l14.3 54h-208.5zm16.5-51.8a29.3-29.3 1 0 0-6.8 0.8l-379.6 105h-405.1a25.5-25.5 1 0 0-23.3 23.3v94.5l-41.3 11.3a24-24 1 0 0-16.5 29.3l57.8 210.8v146.3a24-24 1 0 0 23.3 23.3h23.3l24 88.5a24-24 1 0 0 22.5 17.3a32.3-32.3 1 0 0 6-0.8l378.1-105h407.3a24-24 1 0 0 23.3-23.3v-95.3l41.3-11.3a24-24 1 0 0 16.5-22.5a27-27 1 0 0-0.8-6l-57-210.8v-146.3a24-24 1 0 0-23.3-23.3h-23.3l-24-88.5a22.5-22.5 1 0 0-22.5-17.3z"></path>
	</g>
	<g id="icon_63884" data-name="person-6">
		<path d="M958 816.1a214-214 1 0 0-142.3-200.7l-146.4-53.2a93.2-93.2 1 0 1-56.3-43c65.5-57.3 110.6-164.9 113.7-245.8a97.3-97.3 1 0 0 16.4-64.5c0-65.5-9.2-110.6-29.7-143.4-37.9-60.4-113.7-65.5-200.7-65.5s-162.8 5.1-201.7 64.5c-21.5 30.7-29.7 76.8-29.7 144.4a97.3-97.3 1 0 0 16.4 64.5a383-383 1 0 0 113.7 245.8a94.2-94.2 1 0 1-56.3 43l-146.4 53.2a216.1-216.1 1 0 0-142.3 200.7v207.9h891.9v-207.9zm-632.8-560.1a44-44 1 0 1-11.3-33.8a561.2-561.2 1 0 1 394.2 0a48.1-48.1 1 0 1-11.3 33.8c-11.3 8.2-39.9 1-69.6-9.2a438.3-438.3 1 0 0-93.2-17.4h-45.1a405.5-405.5 1 0 0-94.2 17.4c-29.7 10.2-57.3 18.4-69.6 9.2zm13.3-172c26.6-41 79.9-49.2 174.1-49.2s146.4 8.2 175.1 49.2c14.3 23.6 20.5 56.3 22.5 103.4a584.7-584.7 1 0 0-396.3 0q2-71.7 24.6-103.4zm-6.1 207.9a237.6-237.6 1 0 0 72.7-11.3a579.6-579.6 1 0 1 84-18.4h46.1a331.8-331.8 1 0 1 84 18.4a171-171 1 0 0 72.7 11.3c-11.3 100.4-89.1 237.6-179.2 237.6s-166.9-135.2-180.2-237.6zm180.2 270.3a136.2-136.2 1 0 0 73.7-23.6a131.1-131.1 1 0 0 32.8 34.8l-32.8 37.9h-148.5l-32.8-35.8a131.1-131.1 1 0 0 32.8-34.8a149.5-149.5 1 0 0 74.8 21.5zm-82.9 247.8a78.8-78.8 1 0 1 22.5-56.3l13.3 56.3h93.2l13.3-56.3a81.9-81.9 1 0 1 22.5 56.3a82.9-82.9 1 0 1-46.1 73.7l11.3 105.5h-95.2l11.3-105.5a84-84 1 0 1-46.1-73.7zm495.6 181.2h-132.1v-148.5h-33.8v148.5h-165.9l-10.2-91.1a113.7-113.7 1 0 0 44-90.1c0-42-19.5-85-76.8-110.6l-18.4 76.8h-39.9l-18.4-76.8c-55.3 27.6-76.8 68.6-76.8 110.6a113.7-113.7 1 0 0 44 90.1l-9.2 91.1h-166.9v-148.5h-33.8v148.5h-132.1v-175.1a183.3-183.3 1 0 1 120.8-171s151.6-55.3 155.6-55.3l46.1 55.3h181.2l46.1-55.3c4.1 2 155.6 55.3 155.6 55.3a181.2-181.2 1 0 1 120.8 171v175.1zm-479.2-858.1a15.4-15.4 1 0 0 16.4-16.4c0-3.1 18.4-16.4 50.2-16.4s49.2 13.3 49.2 16.4a16.4-16.4 1 0 0 32.8 0c0-27.6-35.8-49.2-81.9-49.2s-82.9 21.5-82.9 49.2a15.4-15.4 1 0 0 16.4 16.4z"></path>
	</g>
	<g id="icon_61520" data-name="phone-11">
		<path d="M67 38.2c40.9-41 164.4-47.8 165.4-26.1 0.9 21.7 111.3 262 112.2 283.7 1 21.7-72.7 95.5-94.3 117.2-21.4 21.4 144.2 209 147.3 212.5 3.5 3.2 190.6 169.1 212 147.7 21.6-21.6 95.3-95.5 116.8-94.5 21.6 0.9 261.4 111.5 283 112.5 21.6 0.9 14.8 124.7-26.1 165.7-35 35-216 162.2-530.7-64.9-34.5-19.9-89.2-65.5-172.1-148.6 0 0-0.1-0.1-0.2-0.1-0.1-0.1-0.1-0.1-0.2-0.2s-0.1-0.1-0.2-0.2c0-0.1-0.1-0.1-0.1-0.2-82.8-83.1-128.4-137.9-148.3-172.5-226.6-315.5-99.7-497-64.7-532z"></path>
	</g>
	<g id="icon_61515" data-name="phone-3">
		<path d="M750.9 614.4c-68.3 68.3-68.3 136.5-136.5 136.5s-136.5-68.3-204.8-136.5-136.5-136.5-136.5-204.8 68.3-68.3 136.5-136.5-136.5-273.1-204.8-273.1-204.8 204.8-204.8 204.8c0 136.5 140.3 413.3 273.1 546.1s409.6 273.1 546.1 273.1c0 0 204.8-136.5 204.8-204.8s-204.8-273.1-273.1-204.8z"></path>
	</g>
	<g id="icon_64017" data-name="pipe-solid">
		<path d="M319 828.8c-94.8 0-170.7-77-170.7-170.7 0-12.3-8.9-23.4-22.3-23.4s-22.3 10-22.3 22.3c0 0 0 1.1 0 1.1 0 119.4 97 216.4 216.4 216.4 12.3 0 22.3-11.2 22.3-23.4-1.1-11.2-11.2-22.3-23.4-22.3zm386-680.4c-119.4 0-216.4 97-216.4 216.4 0 12.3 11.2 23.4 23.4 23.4 12.3 0 23.4-11.2 23.4-23.4 0 0 0 0 0 0 0-93.7 77-170.7 170.7-170.7 12.3 0 23.4-11.2 23.4-23.4-1.1-11.2-11.2-22.3-24.5-22.3zm-705-71.4h251v34.6l-39 37.9h-172.9l-39-37.9l0-34.6l0 0zm705 166.2c-66.9 0-120.5 54.7-120.5 121.6v294.5c0 147.2-119.4 266.6-266.6 266.6s-265.5-119.4-265.5-266.6l0 0v-465.2h145v465.2c0 66.9 53.5 120.5 121.6 120.5s120.5-53.5 120.5-120.5v-294.5c0-147.2 119.4-266.6 266.6-266.6s266.6 119.4 266.6 266.6v464h-146.1v-464c0-65.8-53.5-121.6-121.6-121.6l0 0zm319 703.9h-249.9v-34.6l37.9-37.9h171.8l39 37.9l1.1 34.6l0 0z"></path>
	</g>
	<g id="icon_64019" data-name="pipe-solid-2">
		<path d="M84.1 1024h-78.5v-311.8h78.5v311.8zm271.4-739.1h259.4c24 17.4 42.5 41.4 52.3 67.6v9.8h-104.6c0-2.2 0-5.5 0-7.6 0-2.2 0-3.3 0-4.4h0c0-3.3-1.1-5.5-3.3-7.6-4.4-2.2-8.7-2.2-12-1.1-4.4 1.1-7.6 5.5-7.6 9.8 0 0 0 4.4 0 10.9h-184.2v-77.4l0 0zm545 699.8h-778.3v-234.4h273.6v-349.9h129.7c0 2.2-1.1 2.2-1.1 3.3-7.6 7.6-17.4 10.9-28.3 10.9-5.5 0-12 4.4-12 12s4.4 10.9 12 10.9c9.8 0 19.6 3.3 28.3 12 10.9 14.2 16.4 30.5 16.4 49.1v3.3l12 10.9c1.1 0 2.2 0 4.4-1.1 4.4-2.2 6.5-5.5 6.5-9.8 0-18.5 5.5-37.1 17.4-52.3 6.5-7.6 16.4-12 28.3-12 5.5 0 10.9-4.4 10.9-10.9s-4.4-12-10.9-12c-9.8 0-20.7-2.2-28.3-10.9-2.2-1.1-2.2-1.1-3.3-3.3h52.3v349.9h270.3v234.4zm117.7 39.2h-77.4v-311.8h77.4v311.8zm-584.3-349.9h39.2v-38.2h-39.2v38.2zm-272.5 154.8h234.4v-40.3h-234.4v40.3zm209.3-712.9c14.2 0 27.3 4.4 37.1 14.2 19.6 20.7 21.8 54.5 22.9 65.4v4.4c0 5.5 5.5 10.9 10.9 10.9h0c2.2 0 3.3 0 4.4-1.1 4.4-1.1 7.6-5.5 7.6-10.9v-2.2c0-7.6 1.1-44.7 20.7-66.5 9.8-9.8 24-15.3 37.1-14.2 5.5 0 10.9-3.3 10.9-10.9s-3.3-10.9-10.9-10.9c-14.2 0-27.3-4.4-37.1-14.2-18.5-20.7-20.7-52.3-21.8-65.4 0-1.1 0-3.3 0-4.4h0c0-3.3-2.2-5.5-3.3-6.5-3.3-3.3-8.7-4.4-13.1-3.3-4.4 1.1-6.5 5.5-6.5 9.8v1.1c0 8.7-2.2 45.8-21.8 66.5-9.8 9.8-24 16.4-37.1 14.2-5.5 0-10.9 4.4-10.9 12 0 8.7 4.4 12 10.9 12l0 0zm53.4-20.7c6.5-7.6 12-17.4 16.4-27.3 4.4 9.8 9.8 18.5 17.4 26.2 4.4 5.5 7.6 7.6 12 10.9-4.4 3.3-7.6 5.5-12 9.8-7.6 7.6-13.1 15.3-17.4 26.2-4.4-10.9-9.8-18.5-16.4-26.2-4.4-4.4-8.7-6.5-13.1-9.8 5.5-3.3 8.7-5.5 13.1-9.8l0 0z"></path>
	</g>
	<g id="icon_63989" data-name="pipe-wrench">
		<path d="M669.5 110.6l-313.3 1l0-73.7l202.8-1c39.9 0 82.9 41 110.6 73.7zm-239.6 74.8l-73.7 0l0-36.9l47.1 0l26.6 0zm234.5 66.6a224.3-224.3 1 0 1-74.8 45.1a18.4-18.4 1 0 0-12.3 17.4l-2 617.5a55.3-55.3 1 1 1-110.6 0l1-432.1a18.4-18.4 1 0 0-8.2-15.4c0-1-26.6-18.4-53.2-39.9l6.1 0l73.7-1a18.4-18.4 1 0 0 7.2-1a19.5-19.5 1 0 0 6.1-4.1a18.4-18.4 1 0 0 5.1-13.3l0-73.7a24.6-24.6 1 0 0 0-3.1a18.4-18.4 1 0 0-5.1-9.2a18.4-18.4 1 0 0-12.3-6.1l-130 1l1-111.6l328.7-1a84-84 1 0 1-20.5 30.7zm-310.3 340l1-142.3c5.1 5.1 11.3 11.3 18.4 17.4l0 88.1a18.4-18.4 1 0 0 18.4 18.4a18.4-18.4 1 0 0 18.4-18.4l0-59.4c7.2 6.1 13.3 10.2 18.4 13.3l0 82.9zm37.9-184.3l-26.6 0a38.9-38.9 1 0 1-10.2-18.4l0-18.4l36.9-1zm73.7-1l-36.9 0l0-36.9l36.9 0zm94.2-406.5l-222.2 1a18.4-18.4 1 0 0-18.4 18.4l0 110.6l0 0l-1 73.7l0 185.3a0 0 1 0 0 0 0l0 55.3l0 0a18.4-18.4 1 0 0-18.4 18.4a18.4-18.4 1 0 0 18.4 18.4l0 36.9a18.4-18.4 1 0 0-19.5 18.4a18.4-18.4 1 0 0 18.4 18.4l0 36.9a18.4-18.4 1 0 0-18.4 18.4a18.4-18.4 1 0 0 18.4 18.4l18.4 0l93.2 0l-2 303.1a92.2-92.2 1 0 0 185.3-1l2-604.2a247.8-247.8 1 0 0 76.8-49.2a105.5-105.5 1 0 0 33.8-74.8a18.4-18.4 1 0 0-18.4-18.4l-239.6 1l0-36.9l240.6-1a18.4-18.4 1 0 0 12.3-5.1a19.5-19.5 1 0 0 3.1-5.1a18.4-18.4 1 0 0 0-18.4a423.9-423.9 1 0 0-49.2-58.4c-39.9-39.9-77.8-60.4-113.7-60.4zm-53.2 918.5a18.4-18.4 1 1 0 25.6 0a18.4-18.4 1 0 0-25.6 0zm-4.1-419.8l-1 359.4a18.4-18.4 1 0 0 18.4 18.4a18.4-18.4 1 0 0 18.4-19.5l1-358.4a18.4-18.4 1 0 0-18.4-18.4a18.4-18.4 1 0 0-18.4 18.4z"></path>
	</g>
	<g id="icon_61635" data-name="play-7">
		<path d="M512 1024q-139 0-257-68.5t-186.5-186.5-68.5-257 68.5-257 186.5-186.5 257-68.5 257 68.5 186.5 186.5 68.5 257-68.5 257-186.5 186.5-257 68.5zM512 128q-159 0-271.5 112.5t-112.5 271.5 112.5 271.5 271.5 112.5 271.5-112.5 112.5-271.5-112.5-271.5-271.5-112.5zM384 288l384 224-384 224v-448z"></path>
	</g>
	<g id="icon_64643" data-name="playbutton">
		<path d="M931 453.6L169.9 9.2c-22.7-12.2-49-12.2-71.7 0s-36.7 35-36.7 61.2l-3.5 881.8c0 24.5 12.2 49 35 61.2c12.2 7 24.5 10.5 36.7 10.5s24.5-3.5 35-10.5l764.6-437.4c22.7-12.2 36.7-35 36.7-61.2C966 490.3 953.8 465.9 931 453.6zM903.1 527.1L138.4 964.5c-7 3.5-12.2 1.7-14 0c-3.5-1.7-7-5.2-7-12.2L120.9 70.4c0-7 5.2-10.5 7-12.2c1.7 0 3.5-1.7 7-1.7c1.7 0 3.5 1.7 5.2 3.5L903.1 502.6c7 3.5 7 8.7 7 12.2S908.3 523.6 903.1 527.1z"></path>
	</g>
	<g id="icon_61836" data-name="redo-3">
		<path d="M1023 341q-1 15-9.5 29t-21.5 14h-330q-24 1-23-34l126-126q-109-96-253-96-104 0-192.5 51.5t-140 140-51.5 193 51.5 192.5 140 139.5 192.5 51.5q88 0 165.5-37.5t131.5-103.5l101 79q-72 89-176 139.5t-222 50.5q-104 0-199-40.5t-163.5-109-109-163.5-40.5-199 40.5-198.5 109-163 163.5-109 199-40.5q97 0 185.5 35t158.5 98l134-134q35-1 34 23z"></path>
	</g>
	<g id="icon_57806" data-name="search-3">
		<path d="M898.2 938.5l-229.1-336.6c130.9-103.7 167.9-291.4 79.7-438.3-95.9-159.5-303.6-211.3-463.2-115.5-159.5 95.9-211.3 303.6-115.5 463.2 86.4 143.9 263.9 200.1 415 139.4l190.3 361.6c5.9 11.2 19.6 15 30.5 8.5l85.6-51.4c10.9-6.5 13.9-20.4 6.8-30.9zM577.6 534.1c-108.4 65.1-249.6 29.9-314.8-78.5-65.1-108.4-29.9-249.6 78.5-314.7 108.4-65.1 249.6-29.9 314.7 78.5 65.1 108.4 29.9 249.6-78.5 314.7z"></path>
	</g>
	<g id="icon_61991" data-name="search-4">
		<path d="M1005 1005q-19 19-45.5 19t-45.5-19l-198-198q-120 89-268 89-91 0-174-35.5t-143-95.5-95.5-142.5-35.5-174 35.5-174.5 95.5-142.5 143-95 174-35.5 174 35.5 143 95 95.5 142.5 35.5 174q0 149-89 268l198 198q19 19 19 45.5t-19 45.5zM448 129q-87 0-160.5 42.5t-116.5 116.5-43 160.5 43 160.5 116.5 116.5 160.5 42.5 160.5-42.5 116.5-116.5 43-160.5-43-160.5-116.5-116.5-160.5-42.5z"></path>
	</g>
	<g id="icon_61995" data-name="search-8">
		<path d="M1014.9 926.5c12.2 12.2 12.2 32 0 44.2l-44.2 44.2c-12.2 12.2-32 12.2-44.2 0l-309.4-309.4c-3.4-3.4-5.6-7.3-7.1-11.6-63.5 46.4-141.4 74-226 74-212.1 0-384-171.9-384-384 0-212.1 171.9-384 384-384 212.1 0 384 171.9 384 384 0 84.6-27.7 162.6-74 226 4.2 1.5 8.2 3.7 11.6 7.1l309.4 309.4zM384 128c-141.4 0-256 114.6-256 256s114.6 256 256 256 256-114.6 256-256c0-141.4-114.6-256-256-256z"></path>
	</g>
	<g id="icon_64043" data-name="service-outline-2">
		<path d="M117 37.9c14.3 0 28.7 6.1 38.9 16.4l337.9 350.2c2 2 5.1 5.1 7.2 8.2 63.5-22.5 134.1 1 174.1 54.3 32.8 45.1 37.9 103.4 14.3 153.6l-75.8-104.4c-13.3-18.4-38.9-23.6-57.3-10.2l-54.3 38.9l0 0c-18.4 13.3-22.5 37.9-9.2 56.3l75.8 105.5c-55.3 6.1-110.6-18.4-142.3-62.5-32.8-45.1-37.9-102.4-15.4-151.6-1-1-2-2-3.1-3.1l-354.3-333.8l0 0c-21.5-21.5-21.5-55.3 0-75.8l25.6-25.6c9.2-10.2 23.6-16.4 37.9-16.4m5.1 118.8c9.2 0 18.4-3.1 24.6-10.2l0 0c13.3-12.3 13.3-33.8 0-47.1-12.3-13.3-34.8-13.3-48.1 0l0 0c-13.3 13.3-13.3 34.8 0 47.1 6.1 7.2 15.4 10.2 23.6 10.2m468-81.9l10.2 89.1c47.1 9.2 93.2 28.7 134.1 55.3l70.7-56.3l90.1 89.1l-56.3 70.7c27.6 39.9 46.1 85 56.3 132.1l90.1 11.3v127l-90.1 10.2c-9.2 47.1-28.7 93.2-56.3 132.1l56.3 71.7l-90.1 90.1l-70.7-55.3c-41 26.6-87 46.1-134.1 55.3l-10.2 89.1h-128l-10.2-89.1c-48.1-9.2-93.2-28.7-134.1-55.3l-71.7 56.3l-90.1-89.1l55.3-71.7c-26.6-39.9-45.1-85-55.3-132.1l-90.1-11.3v-127l90.1-10.2c5.1-29.7 16.4-59.4 29.7-87l101.4 76.8c-10.2 26.6-15.4 55.3-15.4 84 0 139.3 111.6 250.9 249.9 252.9h2c139.3 0 251.9-112.6 252.9-251.9s-111.6-251.9-250.9-252.9c0 0 0 0 0 0-26.6 0-54.3 5.1-79.9 12.3l-88.1-95.2c29.7-14.3 60.4-24.6 93.2-31.7l10.2-89.1h129m-473.1-74.8c-24.6 0-47.1 9.2-65.5 26.6l-24.6 25.6c-35.8 35.8-35.8 94.2 0 130 0 0 0 0 0 0l0 0l0 0l0 0l0 0l142.3 135.2l-18.4 34.8c-10.2 22.5-18.4 46.1-25.6 69.6l-63.5 7.2l-33.8 4.1v194.6l32.8 4.1l63.5 7.2c10.2 32.8 22.5 65.5 39.9 96.3l-39.9 50.2l-20.5 26.6l24.6 23.6l90.1 89.1l23.6 23.6l26.6-20.5l50.2-39.9c30.7 17.4 62.5 30.7 97.3 41l7.2 62.5l4.1 32.8h194.6l4.1-32.8l7.2-62.5c34.8-10.2 66.6-23.6 97.3-39.9l51.2 39.9l26.6 20.5l23.6-23.6l90.1-90.1l23.6-23.6l-20.5-26.6l-39.9-50.2c17.4-30.7 30.7-63.5 39.9-96.3l63.5-7.2l32.8-4.1v-194.6l-32.8-4.1l-63.5-7.2c-10.2-32.8-22.5-65.5-39.9-96.3l39.9-49.2l20.5-26.6l-23.6-23.6l-90.1-89.1l-23.6-23.6l-26.6 20.5l-50.2 38.9c-30.7-17.4-62.5-30.7-97.3-39.9l-7.2-63.5l-4.1-32.8h-194.6l-3.1 32.8l-9.2 63.5c-25.6 6.1-51.2 15.4-74.8 27.6l-19.5 11.3l-139.3-144.4l0 0l0 0c-17.4-18.4-41-27.6-65.5-27.6zm351.2 324.6c19.5-5.1 37.9-8.2 57.3-8.2 111.6 1 203.8 88.1 210.9 200.7-5.1-25.6-15.4-50.2-30.7-71.7-44-60.4-119.8-90.1-192.5-75.8l-45.1-45.1l0 0zm55.3 419.8h-2c-117.8-1-210.9-97.3-212-214 0-23.6 4.1-46.1 12.3-67.6l44 42c-15.4 55.3-5.1 115.7 28.7 162.8 31.7 42 78.8 70.7 131.1 77.8l-2-1zm99.3-24.6l-25.6-35.8l-75.8-104.4c-1-1 0-3.1 1-3.1l55.3-38.9c1 0 1-1 2 0 1 0 2 1 2 1l76.8 105.5l22.5 31.7c-17.4 17.4-35.8 32.8-58.4 44l0 0z"></path>
	</g>
	<g id="icon_62044" data-name="share-11">
		<path d="M853.3 682.7c-51.2 0-96.7 23.1-128 59l-312.5-156.2c8.5-23 13.8-47.5 13.8-73.4s-5.3-50.4-13.8-73.4l312.5-156.2c31.3 35.8 76.8 59 128 59 94.1 0 170.7-76.6 170.7-170.7s-76.5-170.7-170.7-170.7-170.7 76.6-170.7 170.7c0 12.2 1.4 24.1 3.9 35.7l-318.7 159.4c0.1 0.1 0.2 0.3 0.3 0.4-38.9-41.3-93.7-67.4-154.8-67.4-117.6 0-213.3 95.7-213.3 213.3s95.7 213.3 213.3 213.3c61.1 0 115.9-26.2 154.8-67.4-0.1 0.1-0.2 0.3-0.3 0.4l318.7 159.4c-2.5 11.5-3.9 23.4-3.9 35.7 0 94.1 76.5 170.7 170.7 170.7s170.7-76.6 170.7-170.7-76.5-170.7-170.7-170.7zM853.3 85.3c47.1 0 85.3 38.2 85.3 85.3s-38.3 85.3-85.3 85.3-85.3-38.2-85.3-85.3 38.3-85.3 85.3-85.3zM213.3 640c-70.6 0-128-57.4-128-128s57.4-128 128-128 128 57.4 128 128-57.4 128-128 128zM853.3 938.7c-47.1 0-85.3-38.2-85.3-85.3s38.3-85.3 85.3-85.3 85.3 38.2 85.3 85.3-38.3 85.3-85.3 85.3z"></path>
	</g>
	<g id="icon_62045" data-name="share-12">
		<path d="M866.5 648v159.4q0 73.2-52 125.2t-125.2 52h-512q-73.2 0-125.2-52t-52-125.2v-512q0-73.2 52-125.2t125.2-52h156.9q8 0 13.8 5.8t5.8 13.8q0 16.6-16 19.7-47.4 16-81.8 36.9-6.2 2.5-9.8 2.5h-68.9q-40.6 0-69.5 28.9t-28.9 69.5v512q0 40.6 28.9 69.5t69.5 28.9h512q40.6 0 69.5-28.9t28.9-69.5v-131.7q0-11.7 11.1-17.8 17.2-8 33.2-22.8 9.8-9.8 21.5-4.9 12.9 5.5 12.9 17.8zM1012.3 342.8l-236.3 236.3q-11.1 11.7-27.7 11.7-7.4 0-15.4-3.1-24-10.5-24-36.3v-118.2h-98.5q-198.8 0-269.5 80.6-73.2 84.3-45.5 291.1 1.8 14.2-12.3 20.9-4.9 1.2-7.4 1.2-9.8 0-16-8-6.2-8.6-12.9-19.1t-24.3-42.2-30.5-61.2-23.7-70.2-10.8-75.1q0-30.2 2.2-56t8.6-55.4 17.2-54.2 28.9-50.2 42.2-45.5 58.2-37.8 76.6-29.8 98.2-18.8 120.9-6.8h98.5v-118.2q0-25.8 24-36.3 8-3.1 15.4-3.1 16 0 27.7 11.7l236.3 236.3q11.7 11.7 11.7 27.7t-11.7 27.7z"></path>
	</g>
	<g id="icon_64003" data-name="sink-outline">
		<path d="M871.9 504.8c-8.2-10.2-22.5-11.3-32.8-3.1-1 1-1 2-2 3.1-14.3 18.4-138.2 173.1-138.2 251.9 1 85 70.7 154.6 155.6 153.6 85-1 153.6-69.6 154.6-153.6 0-78.8-122.9-234.5-137.2-251.9zm-17.4 361.5c-60.4 0-110.6-49.2-110.6-110.6 0-42 61.4-137.2 110.6-200.7 49.2 63.5 110.6 158.7 110.6 200.7 0 61.4-50.2 110.6-110.6 110.6zm-66.6-437.2h133.1c12.3 0 22.5-9.2 22.5-22.5-2-225.3-185.3-407.6-411.6-406.5-224.3 1-405.5 182.3-406.5 406.5v178.2c-85 48.1-114.7 156.7-66.6 241.7 6.1 9.2 13.3 19.5 20.5 28.7-41 37.9-64.5 90.1-64.5 146.4 0 11.3 9.2 22.5 22.5 22.5h354.3c11.3 0 22.5-10.2 22.5-22.5 0-56.3-22.5-108.5-64.5-146.4 64.5-73.7 56.3-186.4-17.4-250.9-8.2-8.2-18.4-14.3-28.7-19.5v-178.2c0-127 103.4-230.4 230.4-230.4s231.4 103.4 231.4 230.4l0 0c0 13.3 9.2 22.5 22.5 22.5l0 0zm-420.9 548.9h-305.2c5.1-35.8 24.6-69.6 51.2-93.2 61.4 43 142.3 43 203.8 0 27.6 23.6 45.1 57.3 50.2 93.2zm-18.4-239.6c0 73.7-59.4 134.1-133.1 134.1-73.7 0-134.1-59.4-134.1-133.1 0-73.7 59.4-134.1 133.1-134.1 0 0 0 0 0 0 74.8 0 134.1 59.4 134.1 133.1zm185.3-606.2c-151.6 0-274.4 121.9-275.5 274.4v158.7c-28.7-6.1-59.4-6.1-88.1 0v-158.7c1-200.7 163.8-363.5 365.6-362.5 192.5 1 350.2 148.5 362.5 340h-89.1c-12.3-142.3-132.1-251.9-275.5-251.9l0 0zm-401.4 606.2c0 46.1 36.9 82.9 81.9 82.9 45.1 0 81.9-36.9 81.9-81.9 0-45.1-36.9-81.9-80.9-81.9 0 0 0 0 0 0-46.1 0-82.9 35.8-82.9 80.9l0 0zm119.8 0c0 21.5-17.4 37.9-36.9 37.9-21.5 0-37.9-16.4-37.9-36.9 0-20.5 16.4-37.9 36.9-37.9 0 0 0 0 0 0 20.5-1 37.9 16.4 37.9 36.9l0 0z"></path>
	</g>
	<g id="icon_64004" data-name="sink-solid">
		<path d="M885.9 902.7c-66.2 0-121.3-53.9-121.3-121.3 0-46 67.4-150.5 121.3-220.1 53.9 69.6 121.3 174 121.3 220.1 0 66.2-55 121.3-121.3 121.3zm-534.5 121.3h-334.6c5.6-39.3 26.9-76.4 56.1-102.2 67.4 47.2 156.1 47.2 223.4 0 30.3 26.9 49.4 62.9 55 102.2zm-20.2-262.7c0 80.8-65.1 147.1-146 147.1-80.8 0-147.1-65.1-147.1-146 0-80.8 65.1-147.1 146-147.1 0 0 0 0 0 0 82 0 147.1 65.1 147.1 146zm203.2-664.7c-165.1 0-300.9 134.7-300.9 300.9v174c-32.6-6.7-66.2-6.7-97.7 0v-174c1.1-220.1 179.6-397.5 400.8-397.5 211.1 1.1 384 162.8 397.5 372.8h-97.7c-13.5-156.1-144.8-276.2-302-276.2l0 0zm-440.1 664.7c0 50.5 40.4 90.9 89.8 90.9 49.4 0 89.8-40.4 89.8-89.8 0-49.4-40.4-89.8-88.7-89.8 0 0 0 0 0 0-50.5 0-90.9 40.4-90.9 88.7l0 0zm131.4 0c0 23.6-19.1 41.5-40.4 41.5-23.6 0-41.5-18-41.5-40.4 0-22.5 18-41.5 40.4-41.5 0 0 0 0 0 0 22.5 0 41.5 18 41.5 40.4l0 0z"></path>
	</g>
	<g id="icon_62114" data-name="smiley-2">
		<path d="M512 1024c282.8 0 512-229.2 512-512s-229.2-512-512-512-512 229.2-512 512 229.2 512 512 512zM512 96c229.8 0 416 186.2 416 416s-186.2 416-416 416-416-186.2-416-416 186.2-416 416-416zM256 320c0-35.3 28.7-64 64-64s64 28.7 64 64c0 35.3-28.7 64-64 64-35.3 0-64-28.7-64-64zM640 320c0-35.3 28.7-64 64-64s64 28.7 64 64c0 35.3-28.7 64-64 64-35.3 0-64-28.7-64-64zM704.1 627.3l82.3 49.4c-56 93.1-157.9 155.3-274.4 155.3s-218.5-62.3-274.4-155.3l82.3-49.4c39.2 65.1 110.5 108.7 192.1 108.7s152.9-43.6 192.1-108.7z"></path>
	</g>
	<g id="icon_62143" data-name="social-pinterest">
		<path d="M535.9 0c-279.4 0-420.3 200.4-420.3 367.4 0 101.3 38.4 191.2 120.4 224.7 13.5 5.5 25.6 0.3 29.5-14.6 2.7-10.4 9.1-36.5 12-47.4 4-14.6 2.4-19.8-8.4-32.7-23.7-27.9-38.8-64.2-38.8-115.4 0-148.6 111.2-281.7 289.6-281.7 158 0 244.8 96.6 244.8 225.4 0 169.6-75.1 312.7-186.5 312.7-61.6 0-107.6-50.9-92.8-113.3 17.7-74.6 51.9-155 51.9-208.7 0-48.2-25.9-88.3-79.3-88.3-62.9 0-113.5 65-113.5 152.2 0 55.6 18.9 93.1 18.9 93.1s-64.5 272.8-75.7 320.5c-22.5 95.1-3.4 211.8-1.7 223.6 0.9 6.9 9.8 8.7 13.9 3.4 5.8-7.6 80.8-100.2 106.2-192.6 7.3-26.2 41.4-161.5 41.4-161.5 20.5 38.9 80.1 73.2 143.7 73.2 189.1 0 317.3-172.3 317.3-403.2-0.2-174.4-148-336.9-372.6-336.9z"></path>
	</g>
	<g id="icon_62230" data-name="stack-checkmark">
		<path d="M320 32v73.9l-167.6 23.6 10.9 77.5-163.3 46.8 211.7 738.2 652.1-187 35.7-5h124.5v-768h-704zM251.5 920.3l-179.7-626.7 99.7-28.6 87.8 625 191.8-27-199.6 57.2zM308.6 824.5l-90.7-645.7 102.1-14.3v635.5h162.8l-174.1 24.5zM384 736v-640h576v160l-45.3-45.3-274.7 242.7-146.7-114.7-58.5 58.5 205.3 237.3 320-350.7v452.2h-576z"></path>
	</g>
	<g id="icon_62253" data-name="star">
		<path d="M1024 397h-391.1l-120.9-372-120.9 372h-391.1l316.4 229.9-120.9 372 316.4-229.9 316.4 229.9-120.9-372z"></path>
	</g>
	<g id="icon_62254" data-name="star-2">
		<path d="M1024 397l-353.8-51.4-158.2-320.6-158.2 320.6-353.8 51.4 256 249.5-60.4 352.4 316.4-166.4 316.4 166.4-60.4-352.4 256-249.5z"></path>
	</g>
	<g id="icon_62257" data-name="star-5">
		<path d="M1024 397l-353.8-51.4-158.2-320.6-158.2 320.6-353.8 51.4 256 249.5-60.4 352.4 316.4-166.4 316.4 166.4-60.4-352.4 256-249.5zM512 753.5l-223.5 117.5 42.7-248.8-180.8-176.2 249.8-36.3 111.7-226.4 111.7 226.4 249.8 36.3-180.8 176.2 42.7 248.8-223.5-117.5z"></path>
	</g>
	<g id="icon_62273" data-name="star-outline">
		<path d="M777.9 1002.9c-12.3 0-24.3-2.7-35.4-8-1.9-0.8-3.8-1.7-5.7-2.8l-224.9-128.3-224.9 128.3c-1.9 1.1-3.8 2-5.8 2.9-26.7 12.5-59.4 9.5-83.3-7.8-25.7-18.6-38.4-51.1-32.1-82.6l52.4-254.2c-20.5-18.6-52.7-47.9-87.7-79.8l-103.8-94.4c-1.5-1.4-3-2.9-4.3-4.5-20.5-21.7-27.9-53.1-18.6-81.7 9.5-28.7 33.9-49.9 63.5-55.2 1.9-0.4 3.7-0.8 5.6-1l257.4-28.5 106.5-236c0.9-2.1 2-4.1 3.3-6 14.3-25.9 41.8-42.2 71.7-42.2 29.7 0 57.2 16.3 71.7 42.2 1.2 2 2.2 4 3.3 6.1l106.7 236.1 257.4 28.5c1.9 0.2 3.7 0.5 5.7 0.9 29.5 5.5 54 26.6 63.4 55.4 9.3 28.5 1.9 60.1-18.6 81.8-1.3 1.4-2.8 3-4.3 4.3l-191.5 174.3 52.4 253.6c6.2 32.1-6.5 64.5-32.3 83.2-13.8 10-30.4 15.4-47.9 15.4zM331.7 643.5c-2.1 10-25.5 123-46.3 223.5l199.5-113.7c16.8-9.6 37.5-9.6 54.2 0l199.5 113.6-46.5-224.7c-3.9-18.9 2.5-38.6 16.9-51.6l169.7-154.5-228.2-25.2c-19.2-2.1-35.8-14.2-43.9-32l-94.6-209.2-94.5 209.2c-8 17.6-24.6 29.7-43.9 32l-228.2 25.2 169.7 154.5c14.9 13.5 21 33.8 16.5 52.9z"></path>
	</g>
	<g id="icon_57412" data-name="stumbleupon">
		<path d="M852 0h-680c-94.6 0-172 77.4-172 172v680c0 94.6 77.4 172 172 172h680c94.6 0 172-77.4 172-172v-680c0-94.6-77.4-172-172-172zM512 320c-35.3 0-64 28.7-64 64v256c0 105.9-86.1 192-192 192s-192-86.1-192-192v-128h128v128c0 35.3 28.7 64 64 64s64-28.7 64-64v-256c0-105.9 86.1-192 192-192s192 86.1 192 178v62l-82 24-46-24v-62c0-21.3-28.7-50-64-50zM960 640c0 105.9-86.1 192-192 192s-192-86.1-192-206v-124l46 24 82-24v124c0 49.3 28.7 78 64 78s64-28.7 64-64v-128h128v128z"></path>
	</g>
	<g id="icon_64040" data-name="toilet-solid-2">
		<path d="M256 718.8c-47.6-23.2-164.8-47.6-179.1-173.6h870.3c-11.1 42-66.3 158.1-160.3 183.6s-128.3 32.1-128.3 79.6c0 53.1 63 69.7 92.9 102.8 13.3 13.3 23.2 28.8 31 46.4 8.8 21 13.3 44.2 14.4 66.3h-621.5c12.2-55.3 40.9-105.1 85.1-142.7 74.1-63 47.6-137.1-4.4-162.6zm-179.1-245.5c0 24.3 18.8 44.2 43.1 44.2h168.1c24.3 0 44.2-19.9 44.2-44.2l0 0v-429.1c0-24.3-19.9-44.2-44.2-44.2 0 0 0 0 0 0h-168.1c-24.3 0-43.1 19.9-43.1 44.2 0 0 0 0 0 0l0 0v429.1zm266.5 43.1c0-31 24.3-55.3 55.3-55.3 0 0 0 0 0 0h493.2c29.9 0 55.3 24.3 55.3 55.3l0 0l-603.8 0z"></path>
	</g>
	<g id="icon_63991" data-name="toolbox">
		<path d="M979.6 523.1h-178.1v-45.7a32.6-32.6 1 0 0-32.6-32.6h-68.5a32.6-32.6 1 0 0-32.6 32.6v45.7h-289.6v-45.7a32.6-32.6 1 0 0-32-32.6h-69.1a32.6-32.6 1 0 0-32 32.6v45.7h-200.9v-115.4l101.7-97.8h739l94.6 97.8v115.4zm-222.4 45v33.9h-45v-33.9h45zm0-45h-45v-33.3h45v33.3zm-423.3 45v33.9h-44.4v-33.9h44.4zm0-45h-44.4v-33.3h44.4v33.3zm645.7 270h-935.3v-225h200.9v46.3a32.6-32.6 1 0 0 32 32.6h69.1a32.6-32.6 1 0 0 32-32.6v-46.3h289.6v46.3a32.6-32.6 1 0 0 32.6 32.6h68.5a32.6-32.6 1 0 0 32.6-32.6v-46.3h178.1v225zm-579.2-562.2h234.2v33.9h-234.2v-33.9zm502.2 33.9h-223.7v-45c0-20.2-22.2-33.9-43-33.9h-243.9c-21.5 0-35.9 13.7-35.9 33.9v45h-228.3l-127.8 123.3v450h1024v-448.7z"></path>
	</g>
	<g id="icon_64035" data-name="toolbox-solid">
		<path d="M737.3 317.2c-5.5 0-10-4.4-10-8.9 0 0 0 0 0 0v-136.2c0-4.4-3.3-8.9-8.9-8.9 0 0 0 0 0 0h-410.7c-5.5 0-10 4.4-10 8.9 0 0 0 0 0 1.1v135.1c0 4.4-4.4 8.9-10 8.9l0 0h-279c-4.4 0-8.9 4.4-8.9 10 0 0 0 0 0 1.1v149.4c0 5.5 4.4 10 8.9 10 0 0 0 0 0 0h448.3c5.5 0 8.9-4.4 8.9-10v-32.1c0-5.5 4.4-10 10-10h70.8c4.4 0 8.9 4.4 8.9 10v31c0 5.5 4.4 10 8.9 10h448.3c5.5 0 8.9-4.4 8.9-10 0 0 0 0 0 0v-149.4c0-4.4-3.3-8.9-8.9-8.9l0 0l-275.6-1.1l0 0zm-372 0c-5.5 0-10-4.4-10-8.9v-77.5c0-4.4 4.4-8.9 10-8.9h294.5c5.5 0 10 4.4 10 8.9 0 0 0 0 0 0v77.5c0 4.4-4.4 8.9-10 8.9l0 0l-294.5 0l0 0zm192.6 323.3c0 4.4-4.4 8.9-10 8.9h-69.7c-5.5 0-10-4.4-10-8.9v-108.5c0-4.4-3.3-8.9-8.9-8.9h-450.6c-4.4 0-8.9 4.4-8.9 8.9v318.8c0 5.5 4.4 10 8.9 10 0 0 0 0 0 0h1006.3c4.4 0 8.9-4.4 8.9-10 0 0 0 0 0 0v-318.8c0-4.4-4.4-8.9-8.9-8.9l0 0h-448.3c-5.5 0-8.9 4.4-8.9 8.9v108.5l0 0z"></path>
	</g>
	<g id="icon_57395" data-name="tumblr">
		<path d="M575.9 448l0 234.2c0 59.4-0.8 93.7 5.5 110.5 6.2 16.8 21.9 34.1 39 44.2 22.7 13.6 48.5 20.4 77.7 20.4 51.9 0 82.5-6.8 133.7-40.5v153.9c-43.7 20.6-81.9 32.6-117.3 40.9-35.5 8.2-73.9 12.4-115.1 12.4-46.8 0-74.5-5.9-110.4-17.7-36-11.9-66.7-28.8-92-50.5-25.4-21.9-43-45.2-52.8-69.8-9.8-24.6-14.7-60.4-14.7-107.2v-359.1h-137.4v-145c40.2-13 85.2-31.8 113.8-56.2 28.8-24.4 51.8-53.7 69.1-87.9 17.4-34.1 29.3-77.7 35.9-130.5h165.1l0 256h256v192h-256z"></path>
	</g>
	<g id="icon_57358" data-name="twitter">
		<path d="M1024 194.4c-37.7 16.7-78.2 28-120.7 33.1 43.4-26 76.7-67.2 92.4-116.2-40.6 24.1-85.6 41.6-133.4 51-38.3-40.8-92.9-66.3-153.3-66.3-116 0-210.1 94.1-210.1 210.1 0 16.5 1.9 32.5 5.4 47.9-174.6-8.8-329.4-92.4-433-219.5-18.1 31-28.4 67.1-28.4 105.6 0 72.9 37.1 137.2 93.5 174.9-34.4-1.1-66.8-10.5-95.2-26.3 0 0.9 0 1.8 0 2.6 0 101.8 72.4 186.7 168.5 206-17.6 4.8-36.2 7.4-55.3 7.4-13.5 0-26.7-1.3-39.5-3.8 26.7 83.5 104.3 144.2 196.3 145.9-71.9 56.4-162.5 89.9-260.9 89.9-17 0-33.7-1-50.1-2.9 93 59.6 203.4 94.4 322 94.4 386.4 0 597.7-320.1 597.7-597.7 0-9.1-0.2-18.2-0.6-27.2 41.1-29.6 76.7-66.6 104.8-108.7z"></path>
	</g>
	<g id="icon_63573" data-name="user-12">
		<path d="M256 320c0-141.4 114.6-256 256-256s256 114.6 256 256c0 141.4-114.6 256-256 256-141.4 0-256-114.6-256-256zM768 640h-512c-141.4 0-256 114.6-256 256v64h1024v-64c0-141.4-114.6-256-256-256z"></path>
	</g>
	<g id="icon_57366" data-name="vimeo">
		<path d="M0 308.4l41.6 54.5c0 0 85.8-67.6 114.4-33.8 28.6 33.8 137.7 442 174.2 517.2 31.8 66 119.5 153.3 215.7 91 96.1-62.3 415.8-335.3 473.1-657.6 57.2-322.2-384.7-254.7-431.5 26 117-70.2 179.4 28.5 119.6 140.4-59.8 111.7-114.4 184.6-143 184.6-28.5 0-50.5-74.8-83.2-205.4-33.8-135.1-33.6-378.5-174.1-350.9-132.5 26-306.7 234-306.7 234z"></path>
	</g>
	<g id="icon_64651" data-name="water-2">
		<path d="M512 0c-12.3 0-24.6 8.2-28.7 16.4C417.8 143.4 344.1 254 286.7 352.3S184.3 553 184.3 655.4c0 200.7 147.5 368.6 327.7 368.6s327.7-167.9 327.7-368.6c0-102.4-45.1-200.7-102.4-299s-131.1-208.9-196.6-335.9C536.6 8.2 524.3 0 512 0L512 0zM512 102.4c57.3 106.5 118.8 204.8 167.9 286.7c57.3 98.3 94.2 184.3 94.2 266.2c0 167.9-118.8 299-262.1 299S249.9 823.3 249.9 655.4c0-81.9 36.9-167.9 94.2-266.2C393.2 303.1 454.7 208.9 512 102.4L512 102.4L512 102.4zM335.9 684c-20.5 4.1-32.8 20.5-28.7 41c0 0 0 0 0 4.1c12.3 49.2 36.9 94.2 69.6 131.1c36.9 36.9 86 53.2 135.2 53.2c20.5 0 32.8-16.4 32.8-32.8c0-20.5-16.4-32.8-32.8-32.8c-32.8 0-65.5-12.3-90.1-36.9C393.2 778.2 376.8 745.5 368.6 708.6C364.5 692.2 352.3 679.9 335.9 684L335.9 684L335.9 684z"></path>
	</g>
	<g id="icon_63779" data-name="wrench-7">
		<path d="M840.9 1024c0 0 0 0 0 0-25.4 0-49.6-11.3-66.4-30.9l-354.1-413.2c-37.2 15.8-77.6 24.1-118.3 24.1-166.5 0-302-135.5-302-302 0-29.8 4.4-59.3 13-87.7l15.5-51.1 193.8 193.8c5.2 5.2 12.3 8.1 19.8 8.1s14.6-2.9 19.8-8.1l95.1-95.1c10.9-10.9 10.9-28.7 0-39.6l-193.8-193.8 51.1-15.5c28.4-8.6 57.9-13 87.7-13 166.5 0 302 135.5 302 302 0 40.7-8.3 81.1-24.1 118.3l413.2 354.1c19 16.3 29.9 38.7 30.9 63.1 0.9 24.4-8.3 47.6-25.9 65.3l-95.1 95.1c-16.8 16.8-38.8 26-62 26zM436.3 500.2l386.8 451.2c4.7 5.5 11.1 8.6 17.8 8.6 4.3 0 10.7-1.3 16.7-7.2l95.1-95.1c4.9-4.9 7.5-11.2 7.2-17.6-0.2-6.4-3.3-12.5-8.6-17l-451.2-386.8 12-22.6c18.2-34.1 27.8-72.7 27.8-111.6 0-131.2-106.8-238-238-238-4.2 0-8.3 0.1-12.4 0.3l112.6 112.6c35.9 35.9 35.9 94.2 0 130.1l-95.1 95.1c-17.3 17.3-40.4 26.9-65.1 26.9-24.6 0-47.7-9.5-65.1-26.9l-112.6-112.6c-0.2 4.1-0.3 8.3-0.3 12.4 0 131.2 106.8 238 238 238 38.9 0 77.5-9.6 111.6-27.8l22.6-12.1z"></path>
	</g>
	<g id="icon_63783" data-name="x">
		<path d="M589.3 510.9l285.4 400.1q21 27.9 21 46.9 0 26.9-19 45.4t-44.9 18.5q-7 0-13.5-1t-11.5-3.5-8.5-4.5-8-6-5.5-5.5-5-6.5l-4-5-264.4-369.2-263.4 369.2-4 5t-5 6.5-5.5 5.5-8 6-9 4.5-11.5 3.5-13 1q-25.9 0-44.9-18.5t-19-45.4q0-19 21-46.9l285.4-400.1-290.4-406.1q-1-1-4-5.5t-4.5-6.5-3.5-6.5-2.5-10-0.5-12.5q0-25.9 18.5-44.9t45.4-19q37.9 0 55.9 33.9l262.4 368.2 263.4-368.2q18-33.9 55.9-33.9 26.9 0 45.4 19t18.5 44.9q0 7-0.5 12.5t-2.5 10-3.5 6.5-4.5 6.5-4 5.5z"></path>
	</g>
	<g id="icon_57397" data-name="yahoo">
		<path d="M852.3 640.6l-14.9-418.1c-0.6-17.7 13.3-32.1 31-32.1h128.6c17.7 0 29.6 14.2 26.5 31.7l-74.8 418.6zM964.8 777.3c0 31-25.3 56.3-56.3 56.3h-16.1c-31 0-56.3-25.3-56.3-56.3v-16.1c0-31 25.3-56.3 56.3-56.3h16.1c31 0 56.3 25.3 56.3 56.3v16.1zM385.9 190.4c-213.1 0-385.9 144-385.9 321.6 0 177.6 172.8 321.6 385.9 321.6 213.1 0 385.9-144 385.9-321.6 0-177.6-172.8-321.6-385.9-321.6zM643.2 447.7h-74.6l-118.3 118.3v74.6h96.5v64.3h-257.3v-64.3h96.5v-74.6l-182.7-182.7h-42.3v-64.3h192.6v64.3h-42.3l106.8 106.8 32.2-32.2v-74.6h193v64.3z"></path>
	</g>
	<g id="icon_58880" data-name="yellow-pages">
		<path d="M794 0h-563.9c-95.6 0-173.4 77.8-173.4 173.5v677.3c0 95.5 77.8 173.2 173.4 173.2h563.9c95.6 0 173.3-77.8 173.3-173.2v-677.3c0-95.7-77.7-173.5-173.3-173.5zM885.7 850.8c0 50.4-41.2 91.5-91.7 91.5h-563.9c-50.5 0-91.6-41-91.6-91.5v-9.1c21.6 9.5 48.8 14.9 80.7 14.9 55.1 0 83.6-15.9 108.7-29.9 22.4-12.7 40-22.6 78.4-22.6 39.5 0 78.2 30 78.2 52.4h55c0-22.4 38.7-52.4 78.1-52.4 38.4 0 56.1 9.9 78.4 22.6 25.1 14 53.6 29.9 108.8 29.9 31.6 0 59.1-5.4 80.8-14.9v9.1zM885.7 761.6c-0.1 26.5-48.3 36-80.8 36-40.7 0-59.9-10.7-81.9-23-24.6-13.8-52.4-29.5-105.3-29.5-41 0-80.5 19-105.8 46-25.2-27-64.5-46-105.6-46-52.8 0-80.7 15.7-105.3 29.5-22 12.3-41.1 23-81.8 23-32.4 0-80.5-9.5-80.7-35.9v-589.2c0-50.5 41.1-91.7 91.6-91.7h563.9c50.5 0 91.7 41.2 91.7 91.7v589.1zM288.1 108c0 0 27.8 42.8 22.1 60.9-9.2 29.4-19.5 72.8-4.7 116.9 9.1 27 21.2 37.9 27.7 52.8 6.1 13.8-6.8 31.7-29 69.9-42.4 73-42.4 73-42.4 73 4 1.9 52.2 17.8 102.6-24.6 54.6-46.1 87.2-82.9 87.2-82.9 5.5-5.2 10.8-6 14.8 0.4 5.1 7.7 122 188.1 171.7 264.9 34.4 53.4 41.9 62.4 54.2 76.3 25.8 29.5 65.8 29.1 79.4 17.3l-279.2-624.9h-204.4zM319.3 657.1c-17.4 31.7-8.7 77.9 36.4 78.2l156.2-243.8-54.8-84.9c0 0-4.3 8-137.9 250.6z"></path>
	</g>
	<g id="icon_57386" data-name="yelp">
		<path d="M608.9 653.5c-17.3 17.4-2.7 49.1-2.7 49.1l130.1 217.2c0 0 21.4 28.6 39.9 28.6 18.6 0 37-15.3 37-15.3l102.8-147c0 0 10.4-18.5 10.6-34.8 0.4-23.1-34.5-29.4-34.5-29.4l-243.5-78.2c0 0-23.9-6.3-39.7 9.7zM596.5 544c12.5 21.1 46.8 15 46.8 15l242.9-71c0 0 33.1-13.5 37.8-31.4 4.6-18-5.5-39.6-5.5-39.6l-116.1-136.8c0 0-10.1-17.3-30.9-19-23-2-37.2 25.9-37.2 25.9l-137.3 216c0 0-12.1 21.5-0.7 41zM481.8 459.8c28.6-7 33.1-48.6 33.1-48.6l-1.9-345.9c0 0-4.3-42.7-23.5-54.2-30.1-18.2-39-8.7-47.6-7.4l-201.7 74.9c0 0-19.8 6.5-30 23-14.7 23.4 14.9 57.5 14.9 57.5l209.6 285.8c0 0 20.7 21.4 47 14.9zM431.9 599.7c0.7-26.7-32-42.7-32-42.7l-216.8-109.5c0 0-32.1-13.2-47.7-4-12 7.1-22.5 19.8-23.6 31.1l-14.1 173.8c0 0-2.1 30.1 5.7 43.8 11.1 19.4 47.4 5.9 47.4 5.9l253.1-55.9c9.8-6.6 27.1-7.2 28-42.5zM494.9 693.5c-21.7-11.2-47.7 12-47.7 12l-169.5 186.6c0 0-21.1 28.5-15.8 46.1 5.1 16.4 13.5 24.6 25.3 30.3l170.2 53.7c0 0 20.6 4.3 36.3-0.2 22.2-6.4 18.1-41.2 18.1-41.2l3.8-252.6c0 0-0.9-24.3-20.8-34.6z"></path>
	</g>
	<g id="icon_63802" data-name="youtube-3">
		<path d="M628 710.9v120.6q0 38.3-22.3 38.3-13.1 0-25.7-12.6v-172q12.6-12.6 25.7-12.6 22.3 0 22.3 38.3zM821.1 711.4v26.3h-51.4v-26.3q0-38.9 25.7-38.9t25.7 38.9zM269.1 586.9h61.1v-53.7h-178.3v53.7h60v325.1h57.1v-325.1zM433.7 912h50.9v-282.3h-50.9v216q-17.1 24-32.6 24-10.3 0-12-12-0.6-1.7-0.6-20v-208h-50.9v223.4q0 28 4.6 41.7 6.9 21.1 33.1 21.1 27.4 0 58.3-34.9v30.9zM678.9 827.4v-112.6q0-41.7-5.1-56.6-9.7-32-40.6-32-28.6 0-53.1 30.9v-124h-50.9v378.9h50.9v-27.4q25.7 31.4 53.1 31.4 30.9 0 40.6-31.4 5.1-15.4 5.1-57.1zM872 821.7v-7.4h-52q0 29.1-1.1 34.9-4 20.6-22.9 20.6-26.3 0-26.3-39.4v-49.7h102.3v-58.9q0-45.1-15.4-66.3-22.3-29.1-60.6-29.1-38.9 0-61.1 29.1-16 21.1-16 66.3v98.9q0 45.1 16.6 66.3 22.3 29.1 61.7 29.1 41.1 0 61.7-30.3 10.3-15.4 12-30.9 1.1-5.1 1.1-33.1zM524.6 300v-120q0-39.4-24.6-39.4t-24.6 39.4v120q0 40 24.6 40t24.6-40zM935.4 729.1q0 133.7-14.9 200-8 33.7-33.1 56.6t-58.3 26.3q-105.1 12-317.1 12t-317.1-12q-33.1-3.4-58.6-26.3t-32.9-56.6q-14.9-64-14.9-200 0-133.7 14.9-200 8-33.7 33.1-56.6t58.9-26.9q104.6-11.4 316.6-11.4t317.1 11.4q33.1 4 58.6 26.9t32.9 56.6q14.9 64 14.9 200zM365.1 0h58.3l-69.1 228v154.9h-57.1v-154.9q-8-42.3-34.9-121.1-21.1-58.9-37.1-106.9h60.6l40.6 150.3zM576.6 190.3v100q0 46.3-16 67.4-21.1 29.1-60.6 29.1-38.3 0-60-29.1-16-21.7-16-67.4v-100q0-45.7 16-66.9 21.7-29.1 60-29.1 39.4 0 60.6 29.1 16 21.1 16 66.9zM768 97.7v285.1h-52v-31.4q-30.3 35.4-58.9 35.4-26.3 0-33.7-21.1-4.6-13.7-4.6-42.9v-225.1h52v209.7q0 18.9 0.6 20 1.7 12.6 12 12.6 15.4 0 32.6-24.6v-217.7h52z"></path>
	</g>
	<g id="icon_63803" data-name="youtube-4">
		<path d="M928 864q-222 32-416 32-86 0-190-8t-165-16l-61-8q-27-5-47.5-37.5t-30-78.5-14-86-4.5-73v-154q0-255 96-275 222-32 416-32 86 0 190 8t165 16l61 8q29 4 49.5 36.5t29.5 79.5 13 86 4 73v154q0 36-3 73t-12 85-30 80-51 37zM693 487l-262-160q-11-10-29-5.5t-18 14.5v352q0 11 18 15t29-6l262-160q11-10 11-25t-11-25z"></path>
	</g>
	<g id="icon_63826" data-name="zoom-out-7">
		<path d="M1000.9 889.4l-185-185c50.7-72.6 80.7-160.8 80.7-256.1 0-247.6-200.8-448.3-448.3-448.3s-448.3 200.7-448.3 448.3c0 247.6 200.7 448.3 448.3 448.3 95.3 0 183.6-30 256.2-80.7l185 185c30.7 30.7 80.7 30.7 111.4 0s30.7-80.6 0-111.5zM448.2 768.6c-176.8 0-320.2-143.3-320.2-320.2s143.4-320.2 320.2-320.2c176.9 0 320.2 143.3 320.2 320.2 0.1 176.9-143.3 320.2-320.2 320.2zM256.1 512.4h384.3v-128.1h-384.3v128.1z"></path>
	</g>
</svg>